ISO-10303-21;
HEADER;
FILE_DESCRIPTION (( 'STEP AP214' ),
    '1' );
FILE_NAME ('EnclosureTopNew (1).STEP',
    '2024-05-14T18:13:33',
    ( '' ),
    ( '' ),
    'SwSTEP 2.0',
    'SolidWorks 2023',
    '' );
FILE_SCHEMA (( 'AUTOMOTIVE_DESIGN' ));
ENDSEC;

DATA;
#1 = PLANE ( 'NONE',  #410 ) ;
#2 = ORIENTED_EDGE ( 'NONE', *, *, #462, .F. ) ;
#3 = ORIENTED_EDGE ( 'NONE', *, *, #469, .T. ) ;
#4 = DIRECTION ( 'NONE',  ( 0.000000000000000000, 0.000000000000000000, -1.000000000000000000 ) ) ;
#5 = VECTOR ( 'NONE', #350, 39.37007874015748143 ) ;
#6 = AXIS2_PLACEMENT_3D ( 'NONE', #311, #643, #118 ) ;
#7 = DIRECTION ( 'NONE',  ( -0.000000000000000000, -0.000000000000000000, -1.000000000000000000 ) ) ;
#8 = CARTESIAN_POINT ( 'NONE',  ( 5.299999999999999822, 8.500000000000001776, -0.1499999999999999944 ) ) ;
#9 = CARTESIAN_POINT ( 'NONE',  ( 0.000000000000000000, 0.000000000000000000, 0.000000000000000000 ) ) ;
#10 = FACE_OUTER_BOUND ( 'NONE', #111, .T. ) ;
#11 = DIRECTION ( 'NONE',  ( 0.000000000000000000, 0.000000000000000000, 1.000000000000000000 ) ) ;
#12 = EDGE_CURVE ( 'NONE', #695, #233, #317, .T. ) ;
#13 = LINE ( 'NONE', #465, #400 ) ;
#14 = PLANE ( 'NONE',  #194 ) ;
#15 = VECTOR ( 'NONE', #7, 39.37007874015748143 ) ;
#16 = EDGE_CURVE ( 'NONE', #233, #695, #428, .T. ) ;
#17 = VECTOR ( 'NONE', #748, 39.37007874015748143 ) ;
#18 = DIRECTION ( 'NONE',  ( -0.000000000000000000, -0.000000000000000000, -1.000000000000000000 ) ) ;
#19 = CARTESIAN_POINT ( 'NONE',  ( 8.930000000000001492, 8.650000000000000355, 0.1000000000000000056 ) ) ;
#20 = VERTEX_POINT ( 'NONE', #94 ) ;
#21 = EDGE_LOOP ( 'NONE', ( #537, #500, #640, #408 ) ) ;
#22 = EDGE_CURVE ( 'NONE', #243, #557, #543, .T. ) ;
#23 = DIRECTION ( 'NONE',  ( -0.000000000000000000, -0.000000000000000000, -1.000000000000000000 ) ) ;
#24 = CARTESIAN_POINT ( 'NONE',  ( 0.07000000000000031197, 0.1500000000000000222, 0.1000000000000000056 ) ) ;
#25 = ORIENTED_EDGE ( 'NONE', *, *, #245, .T. ) ;
#26 = ORIENTED_EDGE ( 'NONE', *, *, #539, .F. ) ;
#27 = APPLICATION_PROTOCOL_DEFINITION ( 'draft international standard', 'automotive_design', 1998, #212 ) ;
#28 = EDGE_CURVE ( 'NONE', #300, #233, #430, .T. ) ;
#29 = DIRECTION ( 'NONE',  ( -0.000000000000000000, -0.000000000000000000, -1.000000000000000000 ) ) ;
#30 = CARTESIAN_POINT ( 'NONE',  ( 0.1500000000000002998, 0.1500000000000000222, 0.1000000000000000056 ) ) ;
#31 = ORIENTED_EDGE ( 'NONE', *, *, #584, .F. ) ;
#32 = ORIENTED_EDGE ( 'NONE', *, *, #506, .F. ) ;
#33 = AXIS2_PLACEMENT_3D ( 'NONE', #424, #309, #365 ) ;
#34 = CARTESIAN_POINT ( 'NONE',  ( 8.770000000000001350, 0.1499999999999999944, 0.1000000000000000056 ) ) ;
#35 = FACE_BOUND ( 'NONE', #390, .T. ) ;
#36 = EDGE_LOOP ( 'NONE', ( #198, #602, #663, #227 ) ) ;
#37 = ORIENTED_EDGE ( 'NONE', *, *, #76, .T. ) ;
#38 = DIRECTION ( 'NONE',  ( -1.000000000000000000, -1.205227056028351681E-16, 0.000000000000000000 ) ) ;
#39 = FACE_OUTER_BOUND ( 'NONE', #368, .T. ) ;
#40 = ADVANCED_FACE ( 'NONE', ( #363 ), #223, .F. ) ;
#41 = ORIENTED_EDGE ( 'NONE', *, *, #201, .T. ) ;
#42 = ORIENTED_EDGE ( 'NONE', *, *, #126, .F. ) ;
#43 = CARTESIAN_POINT ( 'NONE',  ( 5.300000000000000711, 3.699999999999999734, -0.1499999999999999944 ) ) ;
#44 = DIRECTION ( 'NONE',  ( 2.276539994720218856E-16, -1.000000000000000000, 0.000000000000000000 ) ) ;
#45 = VERTEX_POINT ( 'NONE', #228 ) ;
#46 = AXIS2_PLACEMENT_3D ( 'NONE', #516, #278, #666 ) ;
#47 = CARTESIAN_POINT ( 'NONE',  ( 9.000000000000001776, 0.000000000000000000, 0.000000000000000000 ) ) ;
#48 = DIRECTION ( 'NONE',  ( -1.000000000000000000, 0.000000000000000000, 0.000000000000000000 ) ) ;
#49 = VERTEX_POINT ( 'NONE', #298 ) ;
#50 = ADVANCED_FACE ( 'NONE', ( #554 ), #767, .T. ) ;
#51 = DIRECTION ( 'NONE',  ( 1.000000000000000000, 2.276539994720218856E-16, -0.000000000000000000 ) ) ;
#52 = ORIENTED_EDGE ( 'NONE', *, *, #232, .T. ) ;
#53 = PRODUCT_DEFINITION ( 'UNKNOWN', '', #291, #87 ) ;
#54 = DIRECTION ( 'NONE',  ( -1.000000000000000000, 0.000000000000000000, 0.000000000000000000 ) ) ;
#55 = CARTESIAN_POINT ( 'NONE',  ( 0.2300000000000006206, 3.850000000000000089, 0.1000000000000000056 ) ) ;
#56 = VERTEX_POINT ( 'NONE', #591 ) ;
#57 = AXIS2_PLACEMENT_3D ( 'NONE', #728, #421, #670 ) ;
#58 = CARTESIAN_POINT ( 'NONE',  ( 0.3000000000000009881, 0.2999999999999999889, -0.1499999999999999944 ) ) ;
#59 = AXIS2_PLACEMENT_3D ( 'NONE', #502, #551, #693 ) ;
#60 = DIRECTION ( 'NONE',  ( 0.000000000000000000, 0.000000000000000000, 1.000000000000000000 ) ) ;
#61 = ORIENTED_EDGE ( 'NONE', *, *, #140, .F. ) ;
#62 = FACE_OUTER_BOUND ( 'NONE', #721, .T. ) ;
#63 = LINE ( 'NONE', #325, #463 ) ;
#64 = ORIENTED_EDGE ( 'NONE', *, *, #796, .T. ) ;
#65 = ORIENTED_EDGE ( 'NONE', *, *, #769, .T. ) ;
#66 = CARTESIAN_POINT ( 'NONE',  ( 5.300000000000000711, 3.699999999999999734, -0.1499999999999999944 ) ) ;
#67 = CYLINDRICAL_SURFACE ( 'NONE', #182, 0.08000000000000000167 ) ;
#68 = ORIENTED_EDGE ( 'NONE', *, *, #662, .T. ) ;
#69 = CARTESIAN_POINT ( 'NONE',  ( 8.850000000000001421, 0.1499999999999999944, 0.1000000000000000056 ) ) ;
#70 = CIRCLE ( 'NONE', #288, 0.08000000000000005718 ) ;
#71 = DIRECTION ( 'NONE',  ( 0.000000000000000000, 1.000000000000000000, 0.000000000000000000 ) ) ;
#72 = DIRECTION ( 'NONE',  ( 1.000000000000000000, 0.000000000000000000, 0.000000000000000000 ) ) ;
#73 = CARTESIAN_POINT ( 'NONE',  ( 5.300000000000001599, 1.206566197201716403E-15, 0.000000000000000000 ) ) ;
#74 = ORIENTED_EDGE ( 'NONE', *, *, #831, .F. ) ;
#75 = PLANE ( 'NONE',  #137 ) ;
#76 = EDGE_CURVE ( 'NONE', #753, #167, #130, .T. ) ;
#77 = CARTESIAN_POINT ( 'NONE',  ( 0.1500000000000005773, 3.850000000000000089, 0.000000000000000000 ) ) ;
#78 = DIRECTION ( 'NONE',  ( 0.000000000000000000, 0.000000000000000000, -1.000000000000000000 ) ) ;
#79 = DIRECTION ( 'NONE',  ( -0.000000000000000000, -0.000000000000000000, -1.000000000000000000 ) ) ;
#80 = VECTOR ( 'NONE', #276, 39.37007874015748143 ) ;
#81 = EDGE_CURVE ( 'NONE', #157, #257, #173, .T. ) ;
#82 = ORIENTED_EDGE ( 'NONE', *, *, #76, .F. ) ;
#83 = VECTOR ( 'NONE', #242, 39.37007874015748143 ) ;
#84 = CIRCLE ( 'NONE', #747, 0.08000000000000023759 ) ;
#85 = ORIENTED_EDGE ( 'NONE', *, *, #594, .F. ) ;
#86 = DIRECTION ( 'NONE',  ( -0.000000000000000000, -0.000000000000000000, -1.000000000000000000 ) ) ;
#87 = PRODUCT_DEFINITION_CONTEXT ( 'detailed design', #212, 'design' ) ;
#88 = CARTESIAN_POINT ( 'NONE',  ( 0.000000000000000000, 0.000000000000000000, 0.000000000000000000 ) ) ;
#89 = VERTEX_POINT ( 'NONE', #688 ) ;
#90 = DIRECTION ( 'NONE',  ( -1.000000000000000000, -0.000000000000000000, -0.000000000000000000 ) ) ;
#91 = DIRECTION ( 'NONE',  ( -1.000000000000000000, 0.000000000000000000, 0.000000000000000000 ) ) ;
#92 = CARTESIAN_POINT ( 'NONE',  ( 8.700000000000001066, 0.2999999999999999889, -0.1499999999999999944 ) ) ;
#93 = ORIENTED_EDGE ( 'NONE', *, *, #752, .F. ) ;
#94 = CARTESIAN_POINT ( 'NONE',  ( 0.07000000000000052014, 3.850000000000000089, 0.000000000000000000 ) ) ;
#95 = CARTESIAN_POINT ( 'NONE',  ( 5.070000000000000284, 8.650000000000000355, 0.000000000000000000 ) ) ;
#96 = FACE_OUTER_BOUND ( 'NONE', #122, .T. ) ;
#97 = ORIENTED_EDGE ( 'NONE', *, *, #462, .T. ) ;
#98 = VECTOR ( 'NONE', #71, 39.37007874015748143 ) ;
#99 = CARTESIAN_POINT ( 'NONE',  ( 5.000000000000000000, 8.800000000000000711, 0.000000000000000000 ) ) ;
#100 = CIRCLE ( 'NONE', #494, 0.08000000000000000167 ) ;
#101 = CIRCLE ( 'NONE', #345, 0.08000000000000023759 ) ;
#102 = LENGTH_MEASURE_WITH_UNIT ( LENGTH_MEASURE( 0.02539999999999999897 ), #486 );
#103 = ORIENTED_EDGE ( 'NONE', *, *, #686, .F. ) ;
#104 = ORIENTED_EDGE ( 'NONE', *, *, #391, .T. ) ;
#105 = LINE ( 'NONE', #109, #642 ) ;
#106 = ORIENTED_EDGE ( 'NONE', *, *, #649, .F. ) ;
#107 = DIRECTION ( 'NONE',  ( -0.000000000000000000, -0.000000000000000000, -1.000000000000000000 ) ) ;
#108 = DIRECTION ( 'NONE',  ( 1.000000000000000000, 0.000000000000000000, 0.000000000000000000 ) ) ;
#109 = CARTESIAN_POINT ( 'NONE',  ( 5.000000000000000888, 4.000000000000000000, 0.1000000000000000056 ) ) ;
#110 = CARTESIAN_POINT ( 'NONE',  ( 8.770000000000001350, 8.650000000000000355, 0.1000000000000000056 ) ) ;
#111 = EDGE_LOOP ( 'NONE', ( #619, #742, #25, #218, #41, #511 ) ) ;
#112 = EDGE_CURVE ( 'NONE', #793, #753, #651, .T. ) ;
#113 = CIRCLE ( 'NONE', #440, 0.08000000000000023759 ) ;
#114 = AXIS2_PLACEMENT_3D ( 'NONE', #69, #23, #527 ) ;
#115 = AXIS2_PLACEMENT_3D ( 'NONE', #735, #807, #91 ) ;
#116 = DIRECTION ( 'NONE',  ( 0.000000000000000000, 1.000000000000000000, 0.000000000000000000 ) ) ;
#117 = EDGE_LOOP ( 'NONE', ( #186, #485 ) ) ;
#118 = DIRECTION ( 'NONE',  ( 0.000000000000000000, -0.000000000000000000, -1.000000000000000000 ) ) ;
#119 = EDGE_LOOP ( 'NONE', ( #475, #32, #281, #740 ) ) ;
#120 = DIRECTION ( 'NONE',  ( 0.000000000000000000, 0.000000000000000000, -1.000000000000000000 ) ) ;
#121 = DIRECTION ( 'NONE',  ( 0.000000000000000000, -0.000000000000000000, -1.000000000000000000 ) ) ;
#122 = EDGE_LOOP ( 'NONE', ( #52, #106, #103, #37 ) ) ;
#123 = CIRCLE ( 'NONE', #598, 0.08000000000000005718 ) ;
#124 = DIRECTION ( 'NONE',  ( 0.000000000000000000, 0.000000000000000000, -1.000000000000000000 ) ) ;
#125 = AXIS2_PLACEMENT_3D ( 'NONE', #66, #702, #132 ) ;
#126 = EDGE_CURVE ( 'NONE', #269, #610, #393, .T. ) ;
#127 = LINE ( 'NONE', #389, #98 ) ;
#128 = ORIENTED_EDGE ( 'NONE', *, *, #580, .T. ) ;
#129 = FACE_OUTER_BOUND ( 'NONE', #284, .T. ) ;
#130 = LINE ( 'NONE', #133, #716 ) ;
#131 = PRODUCT_RELATED_PRODUCT_CATEGORY ( 'part', '', ( #204 ) ) ;
#132 = DIRECTION ( 'NONE',  ( -1.000000000000000000, -1.092739197465705287E-16, 0.000000000000000000 ) ) ;
#133 = CARTESIAN_POINT ( 'NONE',  ( 0.000000000000000000, 0.000000000000000000, 0.1000000000000000056 ) ) ;
#134 = EDGE_CURVE ( 'NONE', #749, #243, #127, .T. ) ;
#135 = DIRECTION ( 'NONE',  ( -1.000000000000000000, 0.000000000000000000, 0.000000000000000000 ) ) ;
#136 = VECTOR ( 'NONE', #536, 39.37007874015748143 ) ;
#137 = AXIS2_PLACEMENT_3D ( 'NONE', #535, #532, #143 ) ;
#138 = LINE ( 'NONE', #402, #629 ) ;
#139 = AXIS2_PLACEMENT_3D ( 'NONE', #303, #174, #108 ) ;
#140 = EDGE_CURVE ( 'NONE', #734, #45, #166, .T. ) ;
#141 = LINE ( 'NONE', #731, #576 ) ;
#142 = CARTESIAN_POINT ( 'NONE',  ( 8.850000000000001421, 0.1499999999999999944, 0.000000000000000000 ) ) ;
#143 = DIRECTION ( 'NONE',  ( -1.000000000000000000, 0.000000000000000000, -0.000000000000000000 ) ) ;
#144 = ADVANCED_FACE ( 'NONE', ( #335 ), #522, .F. ) ;
#145 = PLANE ( 'NONE',  #771 ) ;
#146 = VERTEX_POINT ( 'NONE', #192 ) ;
#147 = EDGE_LOOP ( 'NONE', ( #444, #306, #104, #64 ) ) ;
#148 = FACE_BOUND ( 'NONE', #331, .T. ) ;
#149 = CARTESIAN_POINT ( 'NONE',  ( 0.3000000000000005440, 3.699999999999999289, 0.000000000000000000 ) ) ;
#150 = AXIS2_PLACEMENT_3D ( 'NONE', #30, #213, #667 ) ;
#151 = AXIS2_PLACEMENT_3D ( 'NONE', #251, #124, #313 ) ;
#152 = EDGE_LOOP ( 'NONE', ( #395, #82, #351, #128 ) ) ;
#153 = ORIENTED_EDGE ( 'NONE', *, *, #16, .T. ) ;
#154 = PRODUCT_CONTEXT ( 'NONE', #328, 'mechanical' ) ;
#155 = LINE ( 'NONE', #791, #343 ) ;
#156 = LINE ( 'NONE', #720, #679 ) ;
#157 = VERTEX_POINT ( 'NONE', #321 ) ;
#158 = EDGE_LOOP ( 'NONE', ( #603, #362 ) ) ;
#159 = DIRECTION ( 'NONE',  ( 0.000000000000000000, 0.000000000000000000, -1.000000000000000000 ) ) ;
#160 = CYLINDRICAL_SURFACE ( 'NONE', #33, 0.08000000000000023759 ) ;
#161 = ORIENTED_EDGE ( 'NONE', *, *, #190, .F. ) ;
#162 = ORIENTED_EDGE ( 'NONE', *, *, #442, .T. ) ;
#163 = CARTESIAN_POINT ( 'NONE',  ( 8.850000000000001421, 8.650000000000000355, 0.000000000000000000 ) ) ;
#164 =( CONVERSION_BASED_UNIT ( 'INCH', #741 ) LENGTH_UNIT ( ) NAMED_UNIT ( #813 ) );
#165 = ORIENTED_EDGE ( 'NONE', *, *, #675, .T. ) ;
#166 = CIRCLE ( 'NONE', #262, 0.08000000000000005718 ) ;
#167 = VERTEX_POINT ( 'NONE', #9 ) ;
#168 = CIRCLE ( 'NONE', #614, 0.08000000000000023759 ) ;
#169 = EDGE_CURVE ( 'NONE', #257, #372, #834, .T. ) ;
#170 = CARTESIAN_POINT ( 'NONE',  ( 0.000000000000000000, 0.000000000000000000, 0.1000000000000000056 ) ) ;
#171 = FACE_BOUND ( 'NONE', #764, .T. ) ;
#172 = ORIENTED_EDGE ( 'NONE', *, *, #16, .F. ) ;
#173 = LINE ( 'NONE', #252, #221 ) ;
#174 = DIRECTION ( 'NONE',  ( 0.000000000000000000, 0.000000000000000000, 1.000000000000000000 ) ) ;
#175 = CARTESIAN_POINT ( 'NONE',  ( 8.930000000000001492, 8.650000000000000355, 0.1000000000000000056 ) ) ;
#176 = CARTESIAN_POINT ( 'NONE',  ( 8.850000000000001421, 0.1499999999999999944, 0.1000000000000000056 ) ) ;
#177 = ADVANCED_BREP_SHAPE_REPRESENTATION ( 'EnclosureTopNew (1)', ( #367, #139 ), #729 ) ;
#178 = EDGE_CURVE ( 'NONE', #678, #557, #778, .T. ) ;
#179 = ORIENTED_EDGE ( 'NONE', *, *, #195, .F. ) ;
#180 = EDGE_CURVE ( 'NONE', #523, #793, #397, .T. ) ;
#181 = ORIENTED_EDGE ( 'NONE', *, *, #126, .T. ) ;
#182 = AXIS2_PLACEMENT_3D ( 'NONE', #330, #264, #792 ) ;
#183 = AXIS2_PLACEMENT_3D ( 'NONE', #608, #38, #364 ) ;
#184 = UNCERTAINTY_MEASURE_WITH_UNIT (LENGTH_MEASURE( 1.000000000000000082E-05 ), #164, 'distance_accuracy_value', 'NONE');
#185 = DIRECTION ( 'NONE',  ( 0.000000000000000000, -0.000000000000000000, -1.000000000000000000 ) ) ;
#186 = ORIENTED_EDGE ( 'NONE', *, *, #506, .T. ) ;
#187 = DIRECTION ( 'NONE',  ( -1.469576158976824292E-16, -1.000000000000000000, -0.000000000000000000 ) ) ;
#188 = CARTESIAN_POINT ( 'NONE',  ( 5.150000000000000355, 8.650000000000000355, 0.1000000000000000056 ) ) ;
#189 = VERTEX_POINT ( 'NONE', #200 ) ;
#190 = EDGE_CURVE ( 'NONE', #734, #677, #644, .T. ) ;
#191 = DIRECTION ( 'NONE',  ( 1.000000000000000000, 0.000000000000000000, -0.000000000000000000 ) ) ;
#192 = CARTESIAN_POINT ( 'NONE',  ( 5.299999999999999822, 8.500000000000001776, 0.000000000000000000 ) ) ;
#193 = ORIENTED_EDGE ( 'NONE', *, *, #816, .T. ) ;
#194 = AXIS2_PLACEMENT_3D ( 'NONE', #355, #789, #724 ) ;
#195 = EDGE_CURVE ( 'NONE', #468, #300, #652, .T. ) ;
#196 = PLANE ( 'NONE',  #125 ) ;
#197 = DIRECTION ( 'NONE',  ( -1.000000000000000000, 0.000000000000000000, 0.000000000000000000 ) ) ;
#198 = ORIENTED_EDGE ( 'NONE', *, *, #327, .T. ) ;
#199 = DIRECTION ( 'NONE',  ( 0.000000000000000000, -1.000000000000000000, 0.000000000000000000 ) ) ;
#200 = CARTESIAN_POINT ( 'NONE',  ( 9.000000000000001776, 0.000000000000000000, 0.1000000000000000056 ) ) ;
#201 = EDGE_CURVE ( 'NONE', #678, #523, #63, .T. ) ;
#202 = DIRECTION ( 'NONE',  ( -1.000000000000000000, 0.000000000000000000, 0.000000000000000000 ) ) ;
#203 = FACE_OUTER_BOUND ( 'NONE', #488, .T. ) ;
#204 = PRODUCT ( 'EnclosureTopNew (1)', 'EnclosureTopNew (1)', '', ( #154 ) ) ;
#205 = EDGE_CURVE ( 'NONE', #45, #734, #123, .T. ) ;
#206 = CARTESIAN_POINT ( 'NONE',  ( 5.878304635907297169E-16, 4.000000000000000000, 0.1000000000000000056 ) ) ;
#207 = AXIS2_PLACEMENT_3D ( 'NONE', #482, #292, #806 ) ;
#208 = CIRCLE ( 'NONE', #318, 0.08000000000000005718 ) ;
#209 = LINE ( 'NONE', #467, #5 ) ;
#210 = ORIENTED_EDGE ( 'NONE', *, *, #353, .F. ) ;
#211 = FACE_BOUND ( 'NONE', #558, .T. ) ;
#212 = APPLICATION_CONTEXT ( 'automotive_design' ) ;
#213 = DIRECTION ( 'NONE',  ( -0.000000000000000000, -0.000000000000000000, -1.000000000000000000 ) ) ;
#214 = ADVANCED_FACE ( 'NONE', ( #256 ), #1, .T. ) ;
#215 = CARTESIAN_POINT ( 'NONE',  ( 9.000000000000001776, 8.800000000000000711, 0.1000000000000000056 ) ) ;
#216 = DIRECTION ( 'NONE',  ( -0.000000000000000000, -0.000000000000000000, -1.000000000000000000 ) ) ;
#217 = ORIENTED_EDGE ( 'NONE', *, *, #668, .F. ) ;
#218 = ORIENTED_EDGE ( 'NONE', *, *, #567, .T. ) ;
#219 = LINE ( 'NONE', #401, #818 ) ;
#220 = PLANE ( 'NONE',  #562 ) ;
#221 = VECTOR ( 'NONE', #60, 39.37007874015748143 ) ;
#222 = VERTEX_POINT ( 'NONE', #708 ) ;
#223 = PLANE ( 'NONE',  #207 ) ;
#224 = DIRECTION ( 'NONE',  ( -1.000000000000000000, -0.000000000000000000, -0.000000000000000000 ) ) ;
#225 = SURFACE_STYLE_USAGE ( .BOTH. , #755 ) ;
#226 = ADVANCED_FACE ( 'NONE', ( #648 ), #67, .F. ) ;
#227 = ORIENTED_EDGE ( 'NONE', *, *, #322, .T. ) ;
#228 = CARTESIAN_POINT ( 'NONE',  ( 0.07000000000000052014, 3.850000000000000089, 0.1000000000000000056 ) ) ;
#229 = DIRECTION ( 'NONE',  ( -0.000000000000000000, -0.000000000000000000, -1.000000000000000000 ) ) ;
#230 = DIMENSIONAL_EXPONENTS ( 1.000000000000000000, 0.000000000000000000, 0.000000000000000000, 0.000000000000000000, 0.000000000000000000, 0.000000000000000000, 0.000000000000000000 ) ;
#231 = ORIENTED_EDGE ( 'NONE', *, *, #140, .T. ) ;
#232 = EDGE_CURVE ( 'NONE', #167, #749, #417, .T. ) ;
#233 = VERTEX_POINT ( 'NONE', #609 ) ;
#234 = CARTESIAN_POINT ( 'NONE',  ( 8.850000000000001421, 0.1499999999999999944, 0.1000000000000000056 ) ) ;
#235 =( NAMED_UNIT ( * ) SI_UNIT ( $, .STERADIAN. ) SOLID_ANGLE_UNIT ( ) );
#236 = ORIENTED_EDGE ( 'NONE', *, *, #645, .T. ) ;
#237 = VECTOR ( 'NONE', #627, 39.37007874015748143 ) ;
#238 = ORIENTED_EDGE ( 'NONE', *, *, #169, .T. ) ;
#239 = VECTOR ( 'NONE', #86, 39.37007874015748143 ) ;
#240 = DIRECTION ( 'NONE',  ( -1.000000000000000000, 0.000000000000000000, 0.000000000000000000 ) ) ;
#241 = ADVANCED_FACE ( 'NONE', ( #672 ), #471, .F. ) ;
#242 = DIRECTION ( 'NONE',  ( -0.000000000000000000, -0.000000000000000000, -1.000000000000000000 ) ) ;
#243 = VERTEX_POINT ( 'NONE', #732 ) ;
#244 = CARTESIAN_POINT ( 'NONE',  ( 5.878304635907297169E-16, 4.000000000000000000, 0.000000000000000000 ) ) ;
#245 = EDGE_CURVE ( 'NONE', #189, #49, #156, .T. ) ;
#246 = FACE_BOUND ( 'NONE', #622, .T. ) ;
#247 = ORIENTED_EDGE ( 'NONE', *, *, #698, .F. ) ;
#248 = PLANE ( 'NONE',  #800 ) ;
#249 = ORIENTED_EDGE ( 'NONE', *, *, #831, .T. ) ;
#250 =( GEOMETRIC_REPRESENTATION_CONTEXT ( 3 ) GLOBAL_UNCERTAINTY_ASSIGNED_CONTEXT ( ( #184 ) ) GLOBAL_UNIT_ASSIGNED_CONTEXT ( ( #164, #803, #235 ) ) REPRESENTATION_CONTEXT ( 'NONE', 'WORKASPACE' ) );
#251 = CARTESIAN_POINT ( 'NONE',  ( 0.1500000000000002998, 0.1500000000000000222, 0.1000000000000000056 ) ) ;
#252 = CARTESIAN_POINT ( 'NONE',  ( 0.3000000000000005440, 3.699999999999999289, -0.1499999999999999944 ) ) ;
#253 = EDGE_LOOP ( 'NONE', ( #416, #697, #265, #3 ) ) ;
#254 = EDGE_CURVE ( 'NONE', #372, #146, #597, .T. ) ;
#255 = CARTESIAN_POINT ( 'NONE',  ( 5.000000000000000888, 4.000000000000000000, 0.1000000000000000056 ) ) ;
#256 = FACE_OUTER_BOUND ( 'NONE', #626, .T. ) ;
#257 = VERTEX_POINT ( 'NONE', #149 ) ;
#258 = DIRECTION ( 'NONE',  ( 0.000000000000000000, 0.000000000000000000, -1.000000000000000000 ) ) ;
#259 = CARTESIAN_POINT ( 'NONE',  ( 8.700000000000001066, 8.500000000000001776, -0.1499999999999999944 ) ) ;
#260 = ORIENTED_EDGE ( 'NONE', *, *, #254, .F. ) ;
#261 = VERTEX_POINT ( 'NONE', #661 ) ;
#262 = AXIS2_PLACEMENT_3D ( 'NONE', #586, #458, #763 ) ;
#263 = PLANE ( 'NONE',  #599 ) ;
#264 = DIRECTION ( 'NONE',  ( -0.000000000000000000, -0.000000000000000000, -1.000000000000000000 ) ) ;
#265 = ORIENTED_EDGE ( 'NONE', *, *, #327, .F. ) ;
#266 = FACE_BOUND ( 'NONE', #117, .T. ) ;
#267 = ADVANCED_FACE ( 'NONE', ( #203 ), #220, .T. ) ;
#268 = CARTESIAN_POINT ( 'NONE',  ( 5.878304635907297169E-16, 4.000000000000000000, 0.1000000000000000056 ) ) ;
#269 = VERTEX_POINT ( 'NONE', #414 ) ;
#270 = FACE_OUTER_BOUND ( 'NONE', #147, .T. ) ;
#271 = CARTESIAN_POINT ( 'NONE',  ( 5.000000000000000888, 4.000000000000000000, 0.000000000000000000 ) ) ;
#272 = ORIENTED_EDGE ( 'NONE', *, *, #134, .T. ) ;
#273 = CARTESIAN_POINT ( 'NONE',  ( 8.850000000000001421, 8.650000000000000355, 0.000000000000000000 ) ) ;
#274 = VECTOR ( 'NONE', #607, 39.37007874015748143 ) ;
#275 = MECHANICAL_DESIGN_GEOMETRIC_PRESENTATION_REPRESENTATION (  '', ( #563 ), #250 ) ;
#276 = DIRECTION ( 'NONE',  ( -2.276539994720218856E-16, 1.000000000000000000, 0.000000000000000000 ) ) ;
#277 = ADVANCED_FACE ( 'NONE', ( #419 ), #14, .T. ) ;
#278 = DIRECTION ( 'NONE',  ( -0.000000000000000000, -0.000000000000000000, -1.000000000000000000 ) ) ;
#279 = DIRECTION ( 'NONE',  ( 0.000000000000000000, 0.000000000000000000, -1.000000000000000000 ) ) ;
#280 = ORIENTED_EDGE ( 'NONE', *, *, #615, .F. ) ;
#281 = ORIENTED_EDGE ( 'NONE', *, *, #341, .T. ) ;
#282 = FACE_BOUND ( 'NONE', #514, .T. ) ;
#283 = CARTESIAN_POINT ( 'NONE',  ( 0.3000000000000005440, 3.699999999999999289, -0.1499999999999999944 ) ) ;
#284 = EDGE_LOOP ( 'NONE', ( #656, #93, #496, #481, #761, #507 ) ) ;
#285 = ORIENTED_EDGE ( 'NONE', *, *, #22, .T. ) ;
#286 = CARTESIAN_POINT ( 'NONE',  ( 0.2300000000000006206, 3.850000000000000089, 0.1000000000000000056 ) ) ;
#287 = FILL_AREA_STYLE ('',( #370 ) ) ;
#288 = AXIS2_PLACEMENT_3D ( 'NONE', #77, #797, #48 ) ;
#289 = VECTOR ( 'NONE', #577, 39.37007874015748143 ) ;
#290 = ORIENTED_EDGE ( 'NONE', *, *, #178, .F. ) ;
#291 = PRODUCT_DEFINITION_FORMATION_WITH_SPECIFIED_SOURCE ( 'ANY', '', #204, .NOT_KNOWN. ) ;
#292 = DIRECTION ( 'NONE',  ( 1.000000000000000000, -1.469576158976824046E-16, 0.000000000000000000 ) ) ;
#293 =( NAMED_UNIT ( * ) SI_UNIT ( $, .STERADIAN. ) SOLID_ANGLE_UNIT ( ) );
#294 = CARTESIAN_POINT ( 'NONE',  ( 8.700000000000001066, 8.500000000000001776, -0.1499999999999999944 ) ) ;
#295 = PLANE ( 'NONE',  #59 ) ;
#296 = ADVANCED_FACE ( 'NONE', ( #541 ), #715, .F. ) ;
#297 = ORIENTED_EDGE ( 'NONE', *, *, #190, .T. ) ;
#298 = CARTESIAN_POINT ( 'NONE',  ( 9.000000000000001776, 8.800000000000000711, 0.1000000000000000056 ) ) ;
#299 = CARTESIAN_POINT ( 'NONE',  ( 8.850000000000001421, 8.650000000000000355, 0.1000000000000000056 ) ) ;
#300 = VERTEX_POINT ( 'NONE', #525 ) ;
#301 = EDGE_CURVE ( 'NONE', #606, #146, #138, .T. ) ;
#302 = ORIENTED_EDGE ( 'NONE', *, *, #584, .T. ) ;
#303 = CARTESIAN_POINT ( 'NONE',  ( 0.000000000000000000, 0.000000000000000000, 0.000000000000000000 ) ) ;
#304 = DIRECTION ( 'NONE',  ( 2.276539994720218856E-16, -1.000000000000000000, 0.000000000000000000 ) ) ;
#305 = FACE_OUTER_BOUND ( 'NONE', #687, .T. ) ;
#306 = ORIENTED_EDGE ( 'NONE', *, *, #739, .F. ) ;
#307 = AXIS2_PLACEMENT_3D ( 'NONE', #487, #229, #808 ) ;
#308 = DIRECTION ( 'NONE',  ( -0.000000000000000000, -0.000000000000000000, -1.000000000000000000 ) ) ;
#309 = DIRECTION ( 'NONE',  ( -0.000000000000000000, -0.000000000000000000, -1.000000000000000000 ) ) ;
#310 = ORIENTED_EDGE ( 'NONE', *, *, #552, .F. ) ;
#311 = CARTESIAN_POINT ( 'NONE',  ( 5.878304635907297169E-16, 4.000000000000000000, 0.1000000000000000056 ) ) ;
#312 = EDGE_LOOP ( 'NONE', ( #61, #297, #684, #386 ) ) ;
#313 = DIRECTION ( 'NONE',  ( -1.000000000000000000, 0.000000000000000000, 0.000000000000000000 ) ) ;
#314 = ADVANCED_FACE ( 'NONE', ( #655 ), #145, .F. ) ;
#315 = CARTESIAN_POINT ( 'NONE',  ( -4.043135030623108676E-16, 3.699999999999999289, 0.000000000000000000 ) ) ;
#316 = ORIENTED_EDGE ( 'NONE', *, *, #567, .F. ) ;
#317 = CIRCLE ( 'NONE', #530, 0.08000000000000023759 ) ;
#318 = AXIS2_PLACEMENT_3D ( 'NONE', #620, #491, #240 ) ;
#319 = VECTOR ( 'NONE', #418, 39.37007874015748143 ) ;
#320 = CARTESIAN_POINT ( 'NONE',  ( 5.000000000000000000, 8.800000000000000711, 0.1000000000000000056 ) ) ;
#321 = CARTESIAN_POINT ( 'NONE',  ( 0.3000000000000005440, 3.699999999999999289, -0.1499999999999999944 ) ) ;
#322 = EDGE_CURVE ( 'NONE', #157, #623, #601, .T. ) ;
#323 = VERTEX_POINT ( 'NONE', #271 ) ;
#324 = CARTESIAN_POINT ( 'NONE',  ( 0.1500000000000002998, 0.1500000000000000222, 0.1000000000000000056 ) ) ;
#325 = CARTESIAN_POINT ( 'NONE',  ( 5.000000000000000000, 8.800000000000000711, 0.1000000000000000056 ) ) ;
#326 = VERTEX_POINT ( 'NONE', #19 ) ;
#327 = EDGE_CURVE ( 'NONE', #623, #794, #528, .T. ) ;
#328 = APPLICATION_CONTEXT ( 'automotive_design' ) ;
#329 = DIRECTION ( 'NONE',  ( -0.000000000000000000, -0.000000000000000000, -1.000000000000000000 ) ) ;
#330 = CARTESIAN_POINT ( 'NONE',  ( 0.1500000000000002998, 0.1500000000000000222, 0.1000000000000000056 ) ) ;
#331 = EDGE_LOOP ( 'NONE', ( #784, #162 ) ) ;
#332 = EDGE_CURVE ( 'NONE', #583, #572, #209, .T. ) ;
#333 = AXIS2_PLACEMENT_3D ( 'NONE', #723, #406, #660 ) ;
#334 = CARTESIAN_POINT ( 'NONE',  ( 8.700000000000001066, 0.2999999999999999889, 0.000000000000000000 ) ) ;
#335 = FACE_OUTER_BOUND ( 'NONE', #441, .T. ) ;
#336 = DIRECTION ( 'NONE',  ( -1.205227056028351681E-16, 1.000000000000000000, 0.000000000000000000 ) ) ;
#337 = CARTESIAN_POINT ( 'NONE',  ( 9.000000000000001776, 0.000000000000000000, 0.1000000000000000056 ) ) ;
#338 = ORIENTED_EDGE ( 'NONE', *, *, #245, .F. ) ;
#339 = CARTESIAN_POINT ( 'NONE',  ( 0.2300000000000003153, 0.1500000000000000500, 0.1000000000000000056 ) ) ;
#340 = DIRECTION ( 'NONE',  ( 0.000000000000000000, 1.000000000000000000, 0.000000000000000000 ) ) ;
#341 = EDGE_CURVE ( 'NONE', #89, #222, #605, .T. ) ;
#342 = DIRECTION ( 'NONE',  ( -0.000000000000000000, -0.000000000000000000, -1.000000000000000000 ) ) ;
#343 = VECTOR ( 'NONE', #135, 39.37007874015748143 ) ;
#344 = DIRECTION ( 'NONE',  ( -1.000000000000000000, 0.000000000000000000, 0.000000000000000000 ) ) ;
#345 = AXIS2_PLACEMENT_3D ( 'NONE', #754, #159, #423 ) ;
#346 = EDGE_CURVE ( 'NONE', #366, #348, #113, .T. ) ;
#347 = ORIENTED_EDGE ( 'NONE', *, *, #698, .T. ) ;
#348 = VERTEX_POINT ( 'NONE', #658 ) ;
#349 = FACE_OUTER_BOUND ( 'NONE', #776, .T. ) ;
#350 = DIRECTION ( 'NONE',  ( 0.000000000000000000, 0.000000000000000000, 1.000000000000000000 ) ) ;
#351 = ORIENTED_EDGE ( 'NONE', *, *, #112, .F. ) ;
#352 = VERTEX_POINT ( 'NONE', #726 ) ;
#353 = EDGE_CURVE ( 'NONE', #20, #677, #70, .T. ) ;
#354 = LINE ( 'NONE', #244, #787 ) ;
#355 = CARTESIAN_POINT ( 'NONE',  ( 5.299999999999999822, 8.500000000000001776, -0.1499999999999999944 ) ) ;
#356 = ORIENTED_EDGE ( 'NONE', *, *, #680, .F. ) ;
#357 = CARTESIAN_POINT ( 'NONE',  ( 5.230000000000000426, 8.650000000000000355, 0.1000000000000000056 ) ) ;
#358 = ADVANCED_FACE ( 'NONE', ( #39 ), #439, .F. ) ;
#359 = LINE ( 'NONE', #34, #545 ) ;
#360 = VECTOR ( 'NONE', #780, 39.37007874015748143 ) ;
#361 = VECTOR ( 'NONE', #821, 39.37007874015748143 ) ;
#362 = ORIENTED_EDGE ( 'NONE', *, *, #836, .F. ) ;
#363 = FACE_OUTER_BOUND ( 'NONE', #152, .T. ) ;
#364 = DIRECTION ( 'NONE',  ( 1.205227056028351681E-16, -1.000000000000000000, 0.000000000000000000 ) ) ;
#365 = DIRECTION ( 'NONE',  ( -1.000000000000000000, 0.000000000000000000, 0.000000000000000000 ) ) ;
#366 = VERTEX_POINT ( 'NONE', #690 ) ;
#367 = MANIFOLD_SOLID_BREP ( 'Cut-Extrude1', #638 ) ;
#368 = EDGE_LOOP ( 'NONE', ( #548, #179, #165, #534 ) ) ;
#369 = DIRECTION ( 'NONE',  ( -0.000000000000000000, -0.000000000000000000, -1.000000000000000000 ) ) ;
#370 = FILL_AREA_STYLE_COLOUR ( '', #653 ) ;
#371 = ADVANCED_FACE ( 'NONE', ( #305 ), #160, .F. ) ;
#372 = VERTEX_POINT ( 'NONE', #676 ) ;
#373 = CARTESIAN_POINT ( 'NONE',  ( 5.000000000000000000, 8.800000000000000711, 0.1000000000000000056 ) ) ;
#374 = DIRECTION ( 'NONE',  ( 0.000000000000000000, 0.000000000000000000, -1.000000000000000000 ) ) ;
#375 = VECTOR ( 'NONE', #595, 39.37007874015748143 ) ;
#376 = ORIENTED_EDGE ( 'NONE', *, *, #232, .F. ) ;
#377 = CIRCLE ( 'NONE', #694, 0.08000000000000023759 ) ;
#378 =( LENGTH_UNIT ( ) NAMED_UNIT ( * ) SI_UNIT ( $, .METRE. ) );
#379 = ORIENTED_EDGE ( 'NONE', *, *, #380, .T. ) ;
#380 = EDGE_CURVE ( 'NONE', #814, #456, #377, .T. ) ;
#381 = CARTESIAN_POINT ( 'NONE',  ( 8.850000000000001421, 8.650000000000000355, 0.1000000000000000056 ) ) ;
#382 = EDGE_LOOP ( 'NONE', ( #310, #717, #518, #669, #519, #376 ) ) ;
#383 = ADVANCED_FACE ( 'NONE', ( #96 ), #556, .F. ) ;
#384 = CARTESIAN_POINT ( 'NONE',  ( 0.2300000000000003153, 0.1500000000000000500, 0.1000000000000000056 ) ) ;
#385 = DIRECTION ( 'NONE',  ( 0.000000000000000000, 0.000000000000000000, -1.000000000000000000 ) ) ;
#386 = ORIENTED_EDGE ( 'NONE', *, *, #432, .F. ) ;
#387 = VECTOR ( 'NONE', #450, 39.37007874015748143 ) ;
#388 = FACE_OUTER_BOUND ( 'NONE', #429, .T. ) ;
#389 = CARTESIAN_POINT ( 'NONE',  ( 9.000000000000001776, 0.000000000000000000, 0.000000000000000000 ) ) ;
#390 = EDGE_LOOP ( 'NONE', ( #451, #280, #217, #31, #2, #260 ) ) ;
#391 = EDGE_CURVE ( 'NONE', #261, #823, #822, .T. ) ;
#392 = DIRECTION ( 'NONE',  ( -0.000000000000000000, -0.000000000000000000, -1.000000000000000000 ) ) ;
#393 = LINE ( 'NONE', #510, #757 ) ;
#394 = ADVANCED_FACE ( 'NONE', ( #171, #246, #633, #568, #630, #35, #547 ), #295, .T. ) ;
#395 = ORIENTED_EDGE ( 'NONE', *, *, #552, .T. ) ;
#396 = FACE_OUTER_BOUND ( 'NONE', #21, .T. ) ;
#397 = LINE ( 'NONE', #268, #237 ) ;
#398 = ORIENTED_EDGE ( 'NONE', *, *, #301, .T. ) ;
#399 = VECTOR ( 'NONE', #773, 39.37007874015748143 ) ;
#400 = VECTOR ( 'NONE', #18, 39.37007874015748143 ) ;
#401 = CARTESIAN_POINT ( 'NONE',  ( 5.070000000000000284, 8.650000000000000355, 0.1000000000000000056 ) ) ;
#402 = CARTESIAN_POINT ( 'NONE',  ( 5.299999999999999822, 8.500000000000001776, -0.1499999999999999944 ) ) ;
#403 = EDGE_CURVE ( 'NONE', #557, #323, #433, .T. ) ;
#404 = LINE ( 'NONE', #206, #759 ) ;
#405 = DIRECTION ( 'NONE',  ( 0.000000000000000000, 0.000000000000000000, -1.000000000000000000 ) ) ;
#406 = DIRECTION ( 'NONE',  ( -0.000000000000000000, -0.000000000000000000, -1.000000000000000000 ) ) ;
#407 = DIRECTION ( 'NONE',  ( 0.000000000000000000, 0.000000000000000000, 1.000000000000000000 ) ) ;
#408 = ORIENTED_EDGE ( 'NONE', *, *, #391, .F. ) ;
#409 = ORIENTED_EDGE ( 'NONE', *, *, #739, .T. ) ;
#410 = AXIS2_PLACEMENT_3D ( 'NONE', #259, #517, #455 ) ;
#411 = CARTESIAN_POINT ( 'NONE',  ( 8.930000000000001492, 0.1499999999999999944, 0.1000000000000000056 ) ) ;
#412 = VECTOR ( 'NONE', #392, 39.37007874015748143 ) ;
#413 = AXIS2_PLACEMENT_3D ( 'NONE', #647, #120, #635 ) ;
#414 = CARTESIAN_POINT ( 'NONE',  ( 8.700000000000001066, 8.500000000000001776, -0.1499999999999999944 ) ) ;
#415 = CIRCLE ( 'NONE', #546, 0.08000000000000023759 ) ;
#416 = ORIENTED_EDGE ( 'NONE', *, *, #332, .T. ) ;
#417 = LINE ( 'NONE', #88, #360 ) ;
#418 = DIRECTION ( 'NONE',  ( -1.000000000000000000, 0.000000000000000000, 0.000000000000000000 ) ) ;
#419 = FACE_OUTER_BOUND ( 'NONE', #646, .T. ) ;
#420 = EDGE_LOOP ( 'NONE', ( #820, #768, #683, #733 ) ) ;
#421 = DIRECTION ( 'NONE',  ( 0.000000000000000000, 0.000000000000000000, -1.000000000000000000 ) ) ;
#422 =( NAMED_UNIT ( * ) PLANE_ANGLE_UNIT ( ) SI_UNIT ( $, .RADIAN. ) );
#423 = DIRECTION ( 'NONE',  ( -1.000000000000000000, 0.000000000000000000, 0.000000000000000000 ) ) ;
#424 = CARTESIAN_POINT ( 'NONE',  ( 8.850000000000001421, 0.1499999999999999944, 0.1000000000000000056 ) ) ;
#425 = ORIENTED_EDGE ( 'NONE', *, *, #332, .F. ) ;
#426 = ORIENTED_EDGE ( 'NONE', *, *, #580, .F. ) ;
#427 = LINE ( 'NONE', #560, #466 ) ;
#428 = CIRCLE ( 'NONE', #57, 0.08000000000000023759 ) ;
#429 = EDGE_LOOP ( 'NONE', ( #664, #238, #575, #193 ) ) ;
#430 = LINE ( 'NONE', #357, #274 ) ;
#431 = DIRECTION ( 'NONE',  ( 0.000000000000000000, 0.000000000000000000, -1.000000000000000000 ) ) ;
#432 = EDGE_CURVE ( 'NONE', #45, #20, #561, .T. ) ;
#433 = LINE ( 'NONE', #625, #464 ) ;
#434 = ORIENTED_EDGE ( 'NONE', *, *, #709, .T. ) ;
#435 = DIRECTION ( 'NONE',  ( 0.000000000000000000, -1.000000000000000000, 0.000000000000000000 ) ) ;
#436 = CARTESIAN_POINT ( 'NONE',  ( 8.770000000000001350, 0.1499999999999999944, 0.1000000000000000056 ) ) ;
#437 = DIRECTION ( 'NONE',  ( 0.000000000000000000, 0.000000000000000000, -1.000000000000000000 ) ) ;
#438 = ORIENTED_EDGE ( 'NONE', *, *, #675, .F. ) ;
#439 = CYLINDRICAL_SURFACE ( 'NONE', #307, 0.08000000000000023759 ) ;
#440 = AXIS2_PLACEMENT_3D ( 'NONE', #142, #405, #474 ) ;
#441 = EDGE_LOOP ( 'NONE', ( #161, #569, #798, #713 ) ) ;
#442 = EDGE_CURVE ( 'NONE', #300, #468, #774, .T. ) ;
#443 = DIRECTION ( 'NONE',  ( -1.000000000000000000, 0.000000000000000000, 0.000000000000000000 ) ) ;
#444 = ORIENTED_EDGE ( 'NONE', *, *, #786, .F. ) ;
#445 = ADVANCED_FACE ( 'NONE', ( #707 ), #457, .F. ) ;
#446 = LINE ( 'NONE', #777, #631 ) ;
#447 = DIRECTION ( 'NONE',  ( -1.000000000000000000, 0.000000000000000000, 0.000000000000000000 ) ) ;
#448 = EDGE_LOOP ( 'NONE', ( #285, #290, #316, #634 ) ) ;
#449 = DIRECTION ( 'NONE',  ( -1.000000000000000000, 0.000000000000000000, 0.000000000000000000 ) ) ;
#450 = DIRECTION ( 'NONE',  ( 1.000000000000000000, 1.092739197465705287E-16, 0.000000000000000000 ) ) ;
#451 = ORIENTED_EDGE ( 'NONE', *, *, #169, .F. ) ;
#452 = AXIS2_PLACEMENT_3D ( 'NONE', #499, #4, #449 ) ;
#453 = VECTOR ( 'NONE', #304, 39.37007874015748143 ) ;
#454 = DIRECTION ( 'NONE',  ( 0.000000000000000000, 0.000000000000000000, 1.000000000000000000 ) ) ;
#455 = DIRECTION ( 'NONE',  ( 0.000000000000000000, 0.000000000000000000, 1.000000000000000000 ) ) ;
#456 = VERTEX_POINT ( 'NONE', #585 ) ;
#457 = PLANE ( 'NONE',  #6 ) ;
#458 = DIRECTION ( 'NONE',  ( 0.000000000000000000, 0.000000000000000000, -1.000000000000000000 ) ) ;
#459 = CARTESIAN_POINT ( 'NONE',  ( 8.850000000000001421, 8.650000000000000355, 0.1000000000000000056 ) ) ;
#460 = DIRECTION ( 'NONE',  ( 1.000000000000000000, 0.000000000000000000, 0.000000000000000000 ) ) ;
#461 = EDGE_LOOP ( 'NONE', ( #504, #426, #542, #826 ) ) ;
#462 = EDGE_CURVE ( 'NONE', #146, #610, #446, .T. ) ;
#463 = VECTOR ( 'NONE', #700, 39.37007874015748143 ) ;
#464 = VECTOR ( 'NONE', #44, 39.37007874015748143 ) ;
#465 = CARTESIAN_POINT ( 'NONE',  ( 9.000000000000001776, 0.000000000000000000, 0.1000000000000000056 ) ) ;
#466 = VECTOR ( 'NONE', #501, 39.37007874015748143 ) ;
#467 = CARTESIAN_POINT ( 'NONE',  ( 8.700000000000001066, 0.2999999999999999889, -0.1499999999999999944 ) ) ;
#468 = VERTEX_POINT ( 'NONE', #833 ) ;
#469 = EDGE_CURVE ( 'NONE', #623, #583, #758, .T. ) ;
#470 = DIRECTION ( 'NONE',  ( -0.000000000000000000, -0.000000000000000000, -1.000000000000000000 ) ) ;
#471 = CYLINDRICAL_SURFACE ( 'NONE', #703, 0.08000000000000005718 ) ;
#472 = CARTESIAN_POINT ( 'NONE',  ( 5.000000000000000000, 8.800000000000000711, 0.1000000000000000056 ) ) ;
#473 = ADVANCED_FACE ( 'NONE', ( #512 ), #248, .F. ) ;
#474 = DIRECTION ( 'NONE',  ( -1.000000000000000000, 0.000000000000000000, 0.000000000000000000 ) ) ;
#475 = ORIENTED_EDGE ( 'NONE', *, *, #526, .F. ) ;
#476 = ORIENTED_EDGE ( 'NONE', *, *, #752, .T. ) ;
#477 = VECTOR ( 'NONE', #216, 39.37007874015748143 ) ;
#478 = CARTESIAN_POINT ( 'NONE',  ( 0.3000000000000009881, 3.615681168085067492E-17, 0.000000000000000000 ) ) ;
#479 = CIRCLE ( 'NONE', #151, 0.08000000000000000167 ) ;
#480 = CARTESIAN_POINT ( 'NONE',  ( 0.1500000000000005773, 3.850000000000000089, 0.1000000000000000056 ) ) ;
#481 = ORIENTED_EDGE ( 'NONE', *, *, #765, .F. ) ;
#482 = CARTESIAN_POINT ( 'NONE',  ( 0.000000000000000000, 0.000000000000000000, 0.1000000000000000056 ) ) ;
#483 = LINE ( 'NONE', #544, #453 ) ;
#484 = ORIENTED_EDGE ( 'NONE', *, *, #722, .F. ) ;
#485 = ORIENTED_EDGE ( 'NONE', *, *, #539, .T. ) ;
#486 =( LENGTH_UNIT ( ) NAMED_UNIT ( * ) SI_UNIT ( $, .METRE. ) );
#487 = CARTESIAN_POINT ( 'NONE',  ( 5.150000000000000355, 8.650000000000000355, 0.1000000000000000056 ) ) ;
#488 = EDGE_LOOP ( 'NONE', ( #181, #302, #425, #674 ) ) ;
#489 = ORIENTED_EDGE ( 'NONE', *, *, #28, .T. ) ;
#490 = EDGE_CURVE ( 'NONE', #222, #352, #785, .T. ) ;
#491 = DIRECTION ( 'NONE',  ( 0.000000000000000000, 0.000000000000000000, -1.000000000000000000 ) ) ;
#492 = CARTESIAN_POINT ( 'NONE',  ( 0.000000000000000000, 0.000000000000000000, 0.1000000000000000056 ) ) ;
#493 = AXIS2_PLACEMENT_3D ( 'NONE', #188, #574, #447 ) ;
#494 = AXIS2_PLACEMENT_3D ( 'NONE', #324, #258, #443 ) ;
#495 = ORIENTED_EDGE ( 'NONE', *, *, #490, .F. ) ;
#496 = ORIENTED_EDGE ( 'NONE', *, *, #769, .F. ) ;
#497 = ADVANCED_FACE ( 'NONE', ( #571 ), #505, .F. ) ;
#498 = CARTESIAN_POINT ( 'NONE',  ( 0.3000000000000009881, 0.2999999999999999889, 0.000000000000000000 ) ) ;
#499 = CARTESIAN_POINT ( 'NONE',  ( 5.150000000000000355, 8.650000000000000355, 0.1000000000000000056 ) ) ;
#500 = ORIENTED_EDGE ( 'NONE', *, *, #786, .T. ) ;
#501 = DIRECTION ( 'NONE',  ( 0.000000000000000000, 1.000000000000000000, 0.000000000000000000 ) ) ;
#502 = CARTESIAN_POINT ( 'NONE',  ( 0.000000000000000000, 0.000000000000000000, 0.000000000000000000 ) ) ;
#503 = ADVANCED_FACE ( 'NONE', ( #129 ), #263, .F. ) ;
#504 = ORIENTED_EDGE ( 'NONE', *, *, #825, .T. ) ;
#505 = PLANE ( 'NONE',  #772 ) ;
#506 = EDGE_CURVE ( 'NONE', #89, #611, #100, .T. ) ;
#507 = ORIENTED_EDGE ( 'NONE', *, *, #322, .F. ) ;
#508 = VECTOR ( 'NONE', #699, 39.37007874015748143 ) ;
#509 = CARTESIAN_POINT ( 'NONE',  ( 5.000000000000000000, 8.800000000000000711, 0.1000000000000000056 ) ) ;
#510 = CARTESIAN_POINT ( 'NONE',  ( 8.700000000000001066, 8.500000000000001776, -0.1499999999999999944 ) ) ;
#511 = ORIENTED_EDGE ( 'NONE', *, *, #180, .T. ) ;
#512 = FACE_OUTER_BOUND ( 'NONE', #420, .T. ) ;
#513 = CARTESIAN_POINT ( 'NONE',  ( 0.000000000000000000, 0.000000000000000000, 0.1000000000000000056 ) ) ;
#514 = EDGE_LOOP ( 'NONE', ( #618, #231 ) ) ;
#515 = ADVANCED_FACE ( 'NONE', ( #388 ), #196, .T. ) ;
#516 = CARTESIAN_POINT ( 'NONE',  ( 5.150000000000000355, 8.650000000000000355, 0.1000000000000000056 ) ) ;
#517 = DIRECTION ( 'NONE',  ( 0.000000000000000000, 1.000000000000000000, -0.000000000000000000 ) ) ;
#518 = ORIENTED_EDGE ( 'NONE', *, *, #403, .F. ) ;
#519 = ORIENTED_EDGE ( 'NONE', *, *, #134, .F. ) ;
#520 = VECTOR ( 'NONE', #336, 39.37007874015748143 ) ;
#521 = DIRECTION ( 'NONE',  ( -2.276539994720218856E-16, 1.000000000000000000, 0.000000000000000000 ) ) ;
#522 = CYLINDRICAL_SURFACE ( 'NONE', #783, 0.08000000000000005718 ) ;
#523 = VERTEX_POINT ( 'NONE', #255 ) ;
#524 = FACE_BOUND ( 'NONE', #549, .T. ) ;
#525 = CARTESIAN_POINT ( 'NONE',  ( 5.230000000000000426, 8.650000000000000355, 0.1000000000000000056 ) ) ;
#526 = EDGE_CURVE ( 'NONE', #611, #352, #710, .T. ) ;
#527 = DIRECTION ( 'NONE',  ( -1.000000000000000000, 0.000000000000000000, 0.000000000000000000 ) ) ;
#528 = LINE ( 'NONE', #782, #136 ) ;
#529 = ADVANCED_FACE ( 'NONE', ( #396 ), #696, .F. ) ;
#530 = AXIS2_PLACEMENT_3D ( 'NONE', #743, #799, #815 ) ;
#531 = VECTOR ( 'NONE', #590, 39.37007874015748143 ) ;
#532 = DIRECTION ( 'NONE',  ( 0.000000000000000000, 0.000000000000000000, -1.000000000000000000 ) ) ;
#533 = DIRECTION ( 'NONE',  ( -1.000000000000000000, 0.000000000000000000, 0.000000000000000000 ) ) ;
#534 = ORIENTED_EDGE ( 'NONE', *, *, #12, .T. ) ;
#535 = CARTESIAN_POINT ( 'NONE',  ( 0.000000000000000000, 0.000000000000000000, 0.1000000000000000056 ) ) ;
#536 = DIRECTION ( 'NONE',  ( 0.000000000000000000, 0.000000000000000000, 1.000000000000000000 ) ) ;
#537 = ORIENTED_EDGE ( 'NONE', *, *, #662, .F. ) ;
#538 = ORIENTED_EDGE ( 'NONE', *, *, #790, .T. ) ;
#539 = EDGE_CURVE ( 'NONE', #611, #89, #479, .T. ) ;
#540 = LINE ( 'NONE', #788, #531 ) ;
#541 = FACE_OUTER_BOUND ( 'NONE', #738, .T. ) ;
#542 = ORIENTED_EDGE ( 'NONE', *, *, #180, .F. ) ;
#543 = LINE ( 'NONE', #99, #744 ) ;
#544 = CARTESIAN_POINT ( 'NONE',  ( 5.299999999999999822, 8.500000000000001776, -0.1499999999999999944 ) ) ;
#545 = VECTOR ( 'NONE', #29, 39.37007874015748143 ) ;
#546 = AXIS2_PLACEMENT_3D ( 'NONE', #163, #685, #550 ) ;
#547 = FACE_OUTER_BOUND ( 'NONE', #382, .T. ) ;
#548 = ORIENTED_EDGE ( 'NONE', *, *, #28, .F. ) ;
#549 = EDGE_LOOP ( 'NONE', ( #409, #68 ) ) ;
#550 = DIRECTION ( 'NONE',  ( -1.000000000000000000, 0.000000000000000000, 0.000000000000000000 ) ) ;
#551 = DIRECTION ( 'NONE',  ( 0.000000000000000000, 0.000000000000000000, -1.000000000000000000 ) ) ;
#552 = EDGE_CURVE ( 'NONE', #56, #167, #573, .T. ) ;
#553 = VERTEX_POINT ( 'NONE', #581 ) ;
#554 = FACE_OUTER_BOUND ( 'NONE', #253, .T. ) ;
#555 = DIRECTION ( 'NONE',  ( -1.000000000000000000, 0.000000000000000000, 0.000000000000000000 ) ) ;
#556 = PLANE ( 'NONE',  #665 ) ;
#557 = VERTEX_POINT ( 'NONE', #766 ) ;
#558 = EDGE_LOOP ( 'NONE', ( #379, #538 ) ) ;
#559 =( CONVERSION_BASED_UNIT ( 'INCH', #102 ) LENGTH_UNIT ( ) NAMED_UNIT ( #230 ) );
#560 = CARTESIAN_POINT ( 'NONE',  ( 8.700000000000001066, 0.2999999999999999889, -0.1499999999999999944 ) ) ;
#561 = LINE ( 'NONE', #819, #83 ) ;
#562 = AXIS2_PLACEMENT_3D ( 'NONE', #92, #460, #279 ) ;
#563 = STYLED_ITEM ( 'NONE', ( #682 ), #367 ) ;
#564 = ORIENTED_EDGE ( 'NONE', *, *, #836, .T. ) ;
#565 = AXIS2_PLACEMENT_3D ( 'NONE', #299, #374, #811 ) ;
#566 = CARTESIAN_POINT ( 'NONE',  ( 8.770000000000001350, 8.650000000000000355, 0.000000000000000000 ) ) ;
#567 = EDGE_CURVE ( 'NONE', #49, #678, #637, .T. ) ;
#568 = FACE_BOUND ( 'NONE', #701, .T. ) ;
#569 = ORIENTED_EDGE ( 'NONE', *, *, #205, .F. ) ;
#570 = ADVANCED_FACE ( 'NONE', ( #62 ), #837, .F. ) ;
#571 = FACE_OUTER_BOUND ( 'NONE', #448, .T. ) ;
#572 = VERTEX_POINT ( 'NONE', #334 ) ;
#573 = LINE ( 'NONE', #762, #718 ) ;
#574 = DIRECTION ( 'NONE',  ( 0.000000000000000000, 0.000000000000000000, -1.000000000000000000 ) ) ;
#575 = ORIENTED_EDGE ( 'NONE', *, *, #709, .F. ) ;
#576 = VECTOR ( 'NONE', #72, 39.37007874015748143 ) ;
#577 = DIRECTION ( 'NONE',  ( -1.000000000000000000, -0.000000000000000000, -0.000000000000000000 ) ) ;
#578 = DIRECTION ( 'NONE',  ( -0.000000000000000000, -0.000000000000000000, -1.000000000000000000 ) ) ;
#579 = VERTEX_POINT ( 'NONE', #781 ) ;
#580 = EDGE_CURVE ( 'NONE', #793, #56, #404, .T. ) ;
#581 = CARTESIAN_POINT ( 'NONE',  ( 8.930000000000001492, 8.650000000000000355, 0.000000000000000000 ) ) ;
#582 = CARTESIAN_POINT ( 'NONE',  ( 0.1500000000000005773, 3.850000000000000089, 0.1000000000000000056 ) ) ;
#583 = VERTEX_POINT ( 'NONE', #657 ) ;
#584 = EDGE_CURVE ( 'NONE', #610, #572, #540, .T. ) ;
#585 = CARTESIAN_POINT ( 'NONE',  ( 8.930000000000001492, 0.1499999999999999944, 0.1000000000000000056 ) ) ;
#586 = CARTESIAN_POINT ( 'NONE',  ( 0.1500000000000005773, 3.850000000000000089, 0.1000000000000000056 ) ) ;
#587 = AXIS2_PLACEMENT_3D ( 'NONE', #750, #435, #121 ) ;
#588 = VECTOR ( 'NONE', #470, 39.37007874015748143 ) ;
#589 = ADVANCED_FACE ( 'NONE', ( #349 ), #604, .F. ) ;
#590 = DIRECTION ( 'NONE',  ( 0.000000000000000000, -1.000000000000000000, 0.000000000000000000 ) ) ;
#591 = CARTESIAN_POINT ( 'NONE',  ( 5.878304635907297169E-16, 4.000000000000000000, 0.000000000000000000 ) ) ;
#592 = ORIENTED_EDGE ( 'NONE', *, *, #12, .F. ) ;
#593 = LINE ( 'NONE', #411, #239 ) ;
#594 = EDGE_CURVE ( 'NONE', #553, #823, #168, .T. ) ;
#595 = DIRECTION ( 'NONE',  ( 1.205227056028351681E-16, -1.000000000000000000, 0.000000000000000000 ) ) ;
#596 = CARTESIAN_POINT ( 'NONE',  ( 8.700000000000001066, 8.500000000000001776, 0.000000000000000000 ) ) ;
#597 = LINE ( 'NONE', #73, #80 ) ;
#598 = AXIS2_PLACEMENT_3D ( 'NONE', #582, #385, #639 ) ;
#599 = AXIS2_PLACEMENT_3D ( 'NONE', #770, #454, #191 ) ;
#600 = LINE ( 'NONE', #478, #520 ) ;
#601 = LINE ( 'NONE', #283, #375 ) ;
#602 = ORIENTED_EDGE ( 'NONE', *, *, #615, .T. ) ;
#603 = ORIENTED_EDGE ( 'NONE', *, *, #346, .F. ) ;
#604 = CYLINDRICAL_SURFACE ( 'NONE', #114, 0.08000000000000023759 ) ;
#605 = LINE ( 'NONE', #24, #477 ) ;
#606 = VERTEX_POINT ( 'NONE', #8 ) ;
#607 = DIRECTION ( 'NONE',  ( -0.000000000000000000, -0.000000000000000000, -1.000000000000000000 ) ) ;
#608 = CARTESIAN_POINT ( 'NONE',  ( 0.3000000000000005440, 3.699999999999999289, -0.1499999999999999944 ) ) ;
#609 = CARTESIAN_POINT ( 'NONE',  ( 5.230000000000000426, 8.650000000000000355, 0.000000000000000000 ) ) ;
#610 = VERTEX_POINT ( 'NONE', #596 ) ;
#611 = VERTEX_POINT ( 'NONE', #339 ) ;
#612 = PRODUCT_DEFINITION_SHAPE ( 'NONE', 'NONE',  #53 ) ;
#613 = LINE ( 'NONE', #43, #361 ) ;
#614 = AXIS2_PLACEMENT_3D ( 'NONE', #273, #78, #202 ) ;
#615 = EDGE_CURVE ( 'NONE', #794, #257, #600, .T. ) ;
#616 = VECTOR ( 'NONE', #689, 39.37007874015748143 ) ;
#617 = DIRECTION ( 'NONE',  ( 0.000000000000000000, -0.000000000000000000, 1.000000000000000000 ) ) ;
#618 = ORIENTED_EDGE ( 'NONE', *, *, #205, .T. ) ;
#619 = ORIENTED_EDGE ( 'NONE', *, *, #112, .T. ) ;
#620 = CARTESIAN_POINT ( 'NONE',  ( 0.1500000000000005773, 3.850000000000000089, 0.000000000000000000 ) ) ;
#621 = ADVANCED_FACE ( 'NONE', ( #282, #266, #211, #524, #148, #10 ), #75, .F. ) ;
#622 = EDGE_LOOP ( 'NONE', ( #495, #74 ) ) ;
#623 = VERTEX_POINT ( 'NONE', #779 ) ;
#624 = LINE ( 'NONE', #751, #616 ) ;
#625 = CARTESIAN_POINT ( 'NONE',  ( 5.000000000000000000, 8.800000000000000711, 0.000000000000000000 ) ) ;
#626 = EDGE_LOOP ( 'NONE', ( #398, #97, #42, #65 ) ) ;
#627 = DIRECTION ( 'NONE',  ( -1.000000000000000000, -0.000000000000000000, -0.000000000000000000 ) ) ;
#628 = FACE_OUTER_BOUND ( 'NONE', #36, .T. ) ;
#629 = VECTOR ( 'NONE', #11, 39.37007874015748143 ) ;
#630 = FACE_BOUND ( 'NONE', #727, .T. ) ;
#631 = VECTOR ( 'NONE', #828, 39.37007874015748143 ) ;
#632 = ORIENTED_EDGE ( 'NONE', *, *, #301, .F. ) ;
#633 = FACE_BOUND ( 'NONE', #158, .T. ) ;
#634 = ORIENTED_EDGE ( 'NONE', *, *, #680, .T. ) ;
#635 = DIRECTION ( 'NONE',  ( -1.000000000000000000, 0.000000000000000000, 0.000000000000000000 ) ) ;
#636 = ORIENTED_EDGE ( 'NONE', *, *, #526, .T. ) ;
#637 = LINE ( 'NONE', #320, #289 ) ;
#638 = CLOSED_SHELL ( 'NONE', ( #241, #296, #589, #529, #570, #40, #383, #314, #497, #473, #445, #621, #394, #515, #277, #214, #267, #50, #712, #503, #358, #691, #371, #226, #144 ) ) ;
#639 = DIRECTION ( 'NONE',  ( -1.000000000000000000, 0.000000000000000000, 0.000000000000000000 ) ) ;
#640 = ORIENTED_EDGE ( 'NONE', *, *, #594, .T. ) ;
#641 = CIRCLE ( 'NONE', #706, 0.08000000000000023759 ) ;
#642 = VECTOR ( 'NONE', #369, 39.37007874015748143 ) ;
#643 = DIRECTION ( 'NONE',  ( 0.000000000000000000, -1.000000000000000000, 0.000000000000000000 ) ) ;
#644 = LINE ( 'NONE', #55, #399 ) ;
#645 = EDGE_CURVE ( 'NONE', #456, #348, #593, .T. ) ;
#646 = EDGE_LOOP ( 'NONE', ( #434, #692, #632, #476 ) ) ;
#647 = CARTESIAN_POINT ( 'NONE',  ( 0.1500000000000002998, 0.1500000000000000222, 0.000000000000000000 ) ) ;
#648 = FACE_OUTER_BOUND ( 'NONE', #119, .T. ) ;
#649 = EDGE_CURVE ( 'NONE', #189, #749, #13, .T. ) ;
#650 = CYLINDRICAL_SURFACE ( 'NONE', #333, 0.08000000000000023759 ) ;
#651 = LINE ( 'NONE', #513, #827 ) ;
#652 = CIRCLE ( 'NONE', #493, 0.08000000000000023759 ) ;
#653 = COLOUR_RGB ( '',0.7921568627450980005, 0.8196078431372548767, 0.9333333333333333481 ) ;
#654 = CARTESIAN_POINT ( 'NONE',  ( 0.2300000000000006206, 3.850000000000000089, 0.000000000000000000 ) ) ;
#655 = FACE_OUTER_BOUND ( 'NONE', #756, .T. ) ;
#656 = ORIENTED_EDGE ( 'NONE', *, *, #816, .F. ) ;
#657 = CARTESIAN_POINT ( 'NONE',  ( 8.700000000000001066, 0.2999999999999999889, -0.1499999999999999944 ) ) ;
#658 = CARTESIAN_POINT ( 'NONE',  ( 8.930000000000001492, 0.1499999999999999944, 0.000000000000000000 ) ) ;
#659 = ORIENTED_EDGE ( 'NONE', *, *, #442, .F. ) ;
#660 = DIRECTION ( 'NONE',  ( -1.000000000000000000, 0.000000000000000000, 0.000000000000000000 ) ) ;
#661 = CARTESIAN_POINT ( 'NONE',  ( 8.770000000000001350, 8.650000000000000355, 0.1000000000000000056 ) ) ;
#662 = EDGE_CURVE ( 'NONE', #326, #261, #641, .T. ) ;
#663 = ORIENTED_EDGE ( 'NONE', *, *, #81, .F. ) ;
#664 = ORIENTED_EDGE ( 'NONE', *, *, #81, .T. ) ;
#665 = AXIS2_PLACEMENT_3D ( 'NONE', #492, #116, #617 ) ;
#666 = DIRECTION ( 'NONE',  ( -1.000000000000000000, 0.000000000000000000, 0.000000000000000000 ) ) ;
#667 = DIRECTION ( 'NONE',  ( -1.000000000000000000, 0.000000000000000000, 0.000000000000000000 ) ) ;
#668 = EDGE_CURVE ( 'NONE', #572, #794, #155, .T. ) ;
#669 = ORIENTED_EDGE ( 'NONE', *, *, #22, .F. ) ;
#670 = DIRECTION ( 'NONE',  ( -1.000000000000000000, 0.000000000000000000, 0.000000000000000000 ) ) ;
#671 = PLANE ( 'NONE',  #183 ) ;
#672 = FACE_OUTER_BOUND ( 'NONE', #312, .T. ) ;
#673 = ORIENTED_EDGE ( 'NONE', *, *, #380, .F. ) ;
#674 = ORIENTED_EDGE ( 'NONE', *, *, #765, .T. ) ;
#675 = EDGE_CURVE ( 'NONE', #468, #695, #219, .T. ) ;
#676 = CARTESIAN_POINT ( 'NONE',  ( 5.300000000000000711, 3.699999999999999734, 0.000000000000000000 ) ) ;
#677 = VERTEX_POINT ( 'NONE', #654 ) ;
#678 = VERTEX_POINT ( 'NONE', #472 ) ;
#679 = VECTOR ( 'NONE', #340, 39.37007874015748143 ) ;
#680 = EDGE_CURVE ( 'NONE', #49, #243, #719, .T. ) ;
#681 = AXIS2_PLACEMENT_3D ( 'NONE', #381, #329, #54 ) ;
#682 = PRESENTATION_STYLE_ASSIGNMENT (( #225 ) ) ;
#683 = ORIENTED_EDGE ( 'NONE', *, *, #201, .F. ) ;
#684 = ORIENTED_EDGE ( 'NONE', *, *, #722, .T. ) ;
#685 = DIRECTION ( 'NONE',  ( 0.000000000000000000, 0.000000000000000000, -1.000000000000000000 ) ) ;
#686 = EDGE_CURVE ( 'NONE', #753, #189, #141, .T. ) ;
#687 = EDGE_LOOP ( 'NONE', ( #832, #673, #347, #705 ) ) ;
#688 = CARTESIAN_POINT ( 'NONE',  ( 0.07000000000000031197, 0.1500000000000000222, 0.1000000000000000056 ) ) ;
#689 = DIRECTION ( 'NONE',  ( -1.000000000000000000, -1.092739197465705287E-16, 0.000000000000000000 ) ) ;
#690 = CARTESIAN_POINT ( 'NONE',  ( 8.770000000000001350, 0.1499999999999999944, 0.000000000000000000 ) ) ;
#691 = ADVANCED_FACE ( 'NONE', ( #270 ), #650, .F. ) ;
#692 = ORIENTED_EDGE ( 'NONE', *, *, #254, .T. ) ;
#693 = DIRECTION ( 'NONE',  ( -1.000000000000000000, 0.000000000000000000, -0.000000000000000000 ) ) ;
#694 = AXIS2_PLACEMENT_3D ( 'NONE', #176, #437, #812 ) ;
#695 = VERTEX_POINT ( 'NONE', #95 ) ;
#696 = CYLINDRICAL_SURFACE ( 'NONE', #681, 0.08000000000000023759 ) ;
#697 = ORIENTED_EDGE ( 'NONE', *, *, #668, .T. ) ;
#698 = EDGE_CURVE ( 'NONE', #814, #366, #359, .T. ) ;
#699 = DIRECTION ( 'NONE',  ( 1.000000000000000000, 0.000000000000000000, 0.000000000000000000 ) ) ;
#700 = DIRECTION ( 'NONE',  ( 2.276539994720218856E-16, -1.000000000000000000, 0.000000000000000000 ) ) ;
#701 = EDGE_LOOP ( 'NONE', ( #805, #85 ) ) ;
#702 = DIRECTION ( 'NONE',  ( -1.092739197465705287E-16, 1.000000000000000000, 0.000000000000000000 ) ) ;
#703 = AXIS2_PLACEMENT_3D ( 'NONE', #480, #79, #533 ) ;
#704 = DIRECTION ( 'NONE',  ( -1.469576158976824292E-16, -1.000000000000000000, -0.000000000000000000 ) ) ;
#705 = ORIENTED_EDGE ( 'NONE', *, *, #346, .T. ) ;
#706 = AXIS2_PLACEMENT_3D ( 'NONE', #459, #714, #795 ) ;
#707 = FACE_OUTER_BOUND ( 'NONE', #461, .T. ) ;
#708 = CARTESIAN_POINT ( 'NONE',  ( 0.07000000000000031197, 0.1500000000000000222, 0.000000000000000000 ) ) ;
#709 = EDGE_CURVE ( 'NONE', #579, #372, #613, .T. ) ;
#710 = LINE ( 'NONE', #384, #412 ) ;
#711 = CARTESIAN_POINT ( 'NONE',  ( 0.1500000000000005773, 3.850000000000000089, 0.1000000000000000056 ) ) ;
#712 = ADVANCED_FACE ( 'NONE', ( #628 ), #671, .T. ) ;
#713 = ORIENTED_EDGE ( 'NONE', *, *, #353, .T. ) ;
#714 = DIRECTION ( 'NONE',  ( 0.000000000000000000, 0.000000000000000000, -1.000000000000000000 ) ) ;
#715 = CYLINDRICAL_SURFACE ( 'NONE', #150, 0.08000000000000000167 ) ;
#716 = VECTOR ( 'NONE', #578, 39.37007874015748143 ) ;
#717 = ORIENTED_EDGE ( 'NONE', *, *, #825, .F. ) ;
#718 = VECTOR ( 'NONE', #187, 39.37007874015748143 ) ;
#719 = LINE ( 'NONE', #215, #588 ) ;
#720 = CARTESIAN_POINT ( 'NONE',  ( 9.000000000000001776, 0.000000000000000000, 0.1000000000000000056 ) ) ;
#721 = EDGE_LOOP ( 'NONE', ( #659, #489, #153, #438 ) ) ;
#722 = EDGE_CURVE ( 'NONE', #677, #20, #208, .T. ) ;
#723 = CARTESIAN_POINT ( 'NONE',  ( 8.850000000000001421, 8.650000000000000355, 0.1000000000000000056 ) ) ;
#724 = DIRECTION ( 'NONE',  ( 2.276539994720218856E-16, -1.000000000000000000, 0.000000000000000000 ) ) ;
#725 = DIRECTION ( 'NONE',  ( -0.000000000000000000, -0.000000000000000000, -1.000000000000000000 ) ) ;
#726 = CARTESIAN_POINT ( 'NONE',  ( 0.2300000000000003153, 0.1500000000000000500, 0.000000000000000000 ) ) ;
#727 = EDGE_LOOP ( 'NONE', ( #592, #172 ) ) ;
#728 = CARTESIAN_POINT ( 'NONE',  ( 5.150000000000000355, 8.650000000000000355, 0.000000000000000000 ) ) ;
#729 =( GEOMETRIC_REPRESENTATION_CONTEXT ( 3 ) GLOBAL_UNCERTAINTY_ASSIGNED_CONTEXT ( ( #736 ) ) GLOBAL_UNIT_ASSIGNED_CONTEXT ( ( #559, #422, #293 ) ) REPRESENTATION_CONTEXT ( 'NONE', 'WORKASPACE' ) );
#730 = APPLICATION_PROTOCOL_DEFINITION ( 'draft international standard', 'automotive_design', 1998, #328 ) ;
#731 = CARTESIAN_POINT ( 'NONE',  ( 0.000000000000000000, 0.000000000000000000, 0.1000000000000000056 ) ) ;
#732 = CARTESIAN_POINT ( 'NONE',  ( 9.000000000000001776, 8.800000000000000711, 0.000000000000000000 ) ) ;
#733 = ORIENTED_EDGE ( 'NONE', *, *, #178, .T. ) ;
#734 = VERTEX_POINT ( 'NONE', #286 ) ;
#735 = CARTESIAN_POINT ( 'NONE',  ( 0.1500000000000002998, 0.1500000000000000222, 0.000000000000000000 ) ) ;
#736 = UNCERTAINTY_MEASURE_WITH_UNIT (LENGTH_MEASURE( 1.000000000000000082E-05 ), #559, 'distance_accuracy_value', 'NONE');
#737 = SURFACE_STYLE_FILL_AREA ( #287 ) ;
#738 = EDGE_LOOP ( 'NONE', ( #26, #636, #249, #835 ) ) ;
#739 = EDGE_CURVE ( 'NONE', #261, #326, #829, .T. ) ;
#740 = ORIENTED_EDGE ( 'NONE', *, *, #490, .T. ) ;
#741 = LENGTH_MEASURE_WITH_UNIT ( LENGTH_MEASURE( 0.02539999999999999897 ), #378 );
#742 = ORIENTED_EDGE ( 'NONE', *, *, #686, .T. ) ;
#743 = CARTESIAN_POINT ( 'NONE',  ( 5.150000000000000355, 8.650000000000000355, 0.000000000000000000 ) ) ;
#744 = VECTOR ( 'NONE', #90, 39.37007874015748143 ) ;
#745 = CARTESIAN_POINT ( 'NONE',  ( 5.878304635907297169E-16, 4.000000000000000000, 0.1000000000000000056 ) ) ;
#746 = PRESENTATION_LAYER_ASSIGNMENT (  '', '', ( #563 ) ) ;
#747 = AXIS2_PLACEMENT_3D ( 'NONE', #234, #431, #555 ) ;
#748 = DIRECTION ( 'NONE',  ( -0.000000000000000000, -0.000000000000000000, -1.000000000000000000 ) ) ;
#749 = VERTEX_POINT ( 'NONE', #47 ) ;
#750 = CARTESIAN_POINT ( 'NONE',  ( 0.3000000000000009881, 0.2999999999999999889, -0.1499999999999999944 ) ) ;
#751 = CARTESIAN_POINT ( 'NONE',  ( 5.300000000000000711, 3.699999999999999734, -0.1499999999999999944 ) ) ;
#752 = EDGE_CURVE ( 'NONE', #606, #579, #483, .T. ) ;
#753 = VERTEX_POINT ( 'NONE', #170 ) ;
#754 = CARTESIAN_POINT ( 'NONE',  ( 8.850000000000001421, 0.1499999999999999944, 0.000000000000000000 ) ) ;
#755 = SURFACE_SIDE_STYLE ('',( #737 ) ) ;
#756 = EDGE_LOOP ( 'NONE', ( #272, #356, #338, #809 ) ) ;
#757 = VECTOR ( 'NONE', #830, 39.37007874015748143 ) ;
#758 = LINE ( 'NONE', #58, #508 ) ;
#759 = VECTOR ( 'NONE', #342, 39.37007874015748143 ) ;
#760 = CIRCLE ( 'NONE', #115, 0.08000000000000000167 ) ;
#761 = ORIENTED_EDGE ( 'NONE', *, *, #469, .F. ) ;
#762 = CARTESIAN_POINT ( 'NONE',  ( 0.000000000000000000, 0.000000000000000000, 0.000000000000000000 ) ) ;
#763 = DIRECTION ( 'NONE',  ( -1.000000000000000000, 0.000000000000000000, 0.000000000000000000 ) ) ;
#764 = EDGE_LOOP ( 'NONE', ( #210, #484 ) ) ;
#765 = EDGE_CURVE ( 'NONE', #583, #269, #427, .T. ) ;
#766 = CARTESIAN_POINT ( 'NONE',  ( 5.000000000000000000, 8.800000000000000711, 0.000000000000000000 ) ) ;
#767 = PLANE ( 'NONE',  #587 ) ;
#768 = ORIENTED_EDGE ( 'NONE', *, *, #804, .F. ) ;
#769 = EDGE_CURVE ( 'NONE', #269, #606, #802, .T. ) ;
#770 = CARTESIAN_POINT ( 'NONE',  ( 0.000000000000000000, 0.000000000000000000, -0.1499999999999999944 ) ) ;
#771 = AXIS2_PLACEMENT_3D ( 'NONE', #337, #344, #407 ) ;
#772 = AXIS2_PLACEMENT_3D ( 'NONE', #824, #199, #185 ) ;
#773 = DIRECTION ( 'NONE',  ( -0.000000000000000000, -0.000000000000000000, -1.000000000000000000 ) ) ;
#774 = CIRCLE ( 'NONE', #452, 0.08000000000000023759 ) ;
#775 = VECTOR ( 'NONE', #308, 39.37007874015748143 ) ;
#776 = EDGE_LOOP ( 'NONE', ( #810, #236, #564, #247 ) ) ;
#777 = CARTESIAN_POINT ( 'NONE',  ( 0.000000000000000000, 8.500000000000001776, 0.000000000000000000 ) ) ;
#778 = LINE ( 'NONE', #373, #15 ) ;
#779 = CARTESIAN_POINT ( 'NONE',  ( 0.3000000000000009881, 0.2999999999999999889, -0.1499999999999999944 ) ) ;
#780 = DIRECTION ( 'NONE',  ( 1.000000000000000000, 0.000000000000000000, 0.000000000000000000 ) ) ;
#781 = CARTESIAN_POINT ( 'NONE',  ( 5.300000000000000711, 3.699999999999999734, -0.1499999999999999944 ) ) ;
#782 = CARTESIAN_POINT ( 'NONE',  ( 0.3000000000000009881, 0.2999999999999999889, -0.1499999999999999944 ) ) ;
#783 = AXIS2_PLACEMENT_3D ( 'NONE', #711, #107, #197 ) ;
#784 = ORIENTED_EDGE ( 'NONE', *, *, #195, .T. ) ;
#785 = CIRCLE ( 'NONE', #413, 0.08000000000000000167 ) ;
#786 = EDGE_CURVE ( 'NONE', #326, #553, #817, .T. ) ;
#787 = VECTOR ( 'NONE', #224, 39.37007874015748143 ) ;
#788 = CARTESIAN_POINT ( 'NONE',  ( 8.700000000000001066, 0.000000000000000000, 0.000000000000000000 ) ) ;
#789 = DIRECTION ( 'NONE',  ( -1.000000000000000000, -2.276539994720218856E-16, 0.000000000000000000 ) ) ;
#790 = EDGE_CURVE ( 'NONE', #456, #814, #84, .T. ) ;
#791 = CARTESIAN_POINT ( 'NONE',  ( 0.000000000000000000, 0.2999999999999999889, 0.000000000000000000 ) ) ;
#792 = DIRECTION ( 'NONE',  ( -1.000000000000000000, 0.000000000000000000, 0.000000000000000000 ) ) ;
#793 = VERTEX_POINT ( 'NONE', #745 ) ;
#794 = VERTEX_POINT ( 'NONE', #498 ) ;
#795 = DIRECTION ( 'NONE',  ( -1.000000000000000000, 0.000000000000000000, 0.000000000000000000 ) ) ;
#796 = EDGE_CURVE ( 'NONE', #823, #553, #415, .T. ) ;
#797 = DIRECTION ( 'NONE',  ( 0.000000000000000000, 0.000000000000000000, -1.000000000000000000 ) ) ;
#798 = ORIENTED_EDGE ( 'NONE', *, *, #432, .T. ) ;
#799 = DIRECTION ( 'NONE',  ( 0.000000000000000000, 0.000000000000000000, -1.000000000000000000 ) ) ;
#800 = AXIS2_PLACEMENT_3D ( 'NONE', #509, #51, #521 ) ;
#801 = SHAPE_DEFINITION_REPRESENTATION ( #612, #177 ) ;
#802 = LINE ( 'NONE', #294, #319 ) ;
#803 =( NAMED_UNIT ( * ) PLANE_ANGLE_UNIT ( ) SI_UNIT ( $, .RADIAN. ) );
#804 = EDGE_CURVE ( 'NONE', #523, #323, #105, .T. ) ;
#805 = ORIENTED_EDGE ( 'NONE', *, *, #796, .F. ) ;
#806 = DIRECTION ( 'NONE',  ( 1.469576158976824046E-16, 1.000000000000000000, 0.000000000000000000 ) ) ;
#807 = DIRECTION ( 'NONE',  ( 0.000000000000000000, 0.000000000000000000, -1.000000000000000000 ) ) ;
#808 = DIRECTION ( 'NONE',  ( -1.000000000000000000, 0.000000000000000000, 0.000000000000000000 ) ) ;
#809 = ORIENTED_EDGE ( 'NONE', *, *, #649, .T. ) ;
#810 = ORIENTED_EDGE ( 'NONE', *, *, #790, .F. ) ;
#811 = DIRECTION ( 'NONE',  ( -1.000000000000000000, 0.000000000000000000, 0.000000000000000000 ) ) ;
#812 = DIRECTION ( 'NONE',  ( -1.000000000000000000, 0.000000000000000000, 0.000000000000000000 ) ) ;
#813 = DIMENSIONAL_EXPONENTS ( 1.000000000000000000, 0.000000000000000000, 0.000000000000000000, 0.000000000000000000, 0.000000000000000000, 0.000000000000000000, 0.000000000000000000 ) ;
#814 = VERTEX_POINT ( 'NONE', #436 ) ;
#815 = DIRECTION ( 'NONE',  ( -1.000000000000000000, 0.000000000000000000, 0.000000000000000000 ) ) ;
#816 = EDGE_CURVE ( 'NONE', #579, #157, #624, .T. ) ;
#817 = LINE ( 'NONE', #175, #775 ) ;
#818 = VECTOR ( 'NONE', #725, 39.37007874015748143 ) ;
#819 = CARTESIAN_POINT ( 'NONE',  ( 0.07000000000000052014, 3.850000000000000089, 0.1000000000000000056 ) ) ;
#820 = ORIENTED_EDGE ( 'NONE', *, *, #403, .T. ) ;
#821 = DIRECTION ( 'NONE',  ( 0.000000000000000000, 0.000000000000000000, 1.000000000000000000 ) ) ;
#822 = LINE ( 'NONE', #110, #17 ) ;
#823 = VERTEX_POINT ( 'NONE', #566 ) ;
#824 = CARTESIAN_POINT ( 'NONE',  ( 5.000000000000000000, 8.800000000000000711, 0.1000000000000000056 ) ) ;
#825 = EDGE_CURVE ( 'NONE', #323, #56, #354, .T. ) ;
#826 = ORIENTED_EDGE ( 'NONE', *, *, #804, .T. ) ;
#827 = VECTOR ( 'NONE', #704, 39.37007874015748143 ) ;
#828 = DIRECTION ( 'NONE',  ( 1.000000000000000000, 0.000000000000000000, 0.000000000000000000 ) ) ;
#829 = CIRCLE ( 'NONE', #565, 0.08000000000000023759 ) ;
#830 = DIRECTION ( 'NONE',  ( 0.000000000000000000, 0.000000000000000000, 1.000000000000000000 ) ) ;
#831 = EDGE_CURVE ( 'NONE', #352, #222, #760, .T. ) ;
#832 = ORIENTED_EDGE ( 'NONE', *, *, #645, .F. ) ;
#833 = CARTESIAN_POINT ( 'NONE',  ( 5.070000000000000284, 8.650000000000000355, 0.1000000000000000056 ) ) ;
#834 = LINE ( 'NONE', #315, #387 ) ;
#835 = ORIENTED_EDGE ( 'NONE', *, *, #341, .F. ) ;
#836 = EDGE_CURVE ( 'NONE', #348, #366, #101, .T. ) ;
#837 = CYLINDRICAL_SURFACE ( 'NONE', #46, 0.08000000000000023759 ) ;
ENDSEC;
END-ISO-10303-21;
