ISO-10303-21;
HEADER;
FILE_DESCRIPTION(('FreeCAD Model'),'2;1');
FILE_NAME('Open CASCADE Shape Model','2026-06-14T16:03:10',('FreeCAD'),(
    'FreeCAD'),'Open CASCADE STEP processor 7.8','FreeCAD','Unknown');
FILE_SCHEMA(('AUTOMOTIVE_DESIGN { 1 0 10303 214 1 1 1 1 }'));
ENDSEC;
DATA;
#1 = APPLICATION_PROTOCOL_DEFINITION('international standard',
  'automotive_design',2000,#2);
#2 = APPLICATION_CONTEXT(
  'core data for automotive mechanical design processes');
#3 = SHAPE_DEFINITION_REPRESENTATION(#4,#10);
#4 = PRODUCT_DEFINITION_SHAPE('','',#5);
#5 = PRODUCT_DEFINITION('design','',#6,#9);
#6 = PRODUCT_DEFINITION_FORMATION('','',#7);
#7 = PRODUCT('Open CASCADE STEP translator 7.8 2',
  'Open CASCADE STEP translator 7.8 2','',(#8));
#8 = PRODUCT_CONTEXT('',#2,'mechanical');
#9 = PRODUCT_DEFINITION_CONTEXT('part definition',#2,'design');
#10 = ADVANCED_BREP_SHAPE_REPRESENTATION('',(#11,#15),#809);
#11 = AXIS2_PLACEMENT_3D('',#12,#13,#14);
#12 = CARTESIAN_POINT('',(0.,0.,0.));
#13 = DIRECTION('',(0.,0.,1.));
#14 = DIRECTION('',(1.,0.,-0.));
#15 = MANIFOLD_SOLID_BREP('',#16);
#16 = CLOSED_SHELL('',(#17,#59,#101,#143,#185,#227,#267,#298,#329,#360,
    #391,#413,#477,#591,#622,#646,#670,#694,#718,#735,#749,#761,#773,
    #785,#797));
#17 = ADVANCED_FACE('',(#18),#54,.F.);
#18 = FACE_BOUND('',#19,.F.);
#19 = EDGE_LOOP('',(#20,#30,#39,#47));
#20 = ORIENTED_EDGE('',*,*,#21,.T.);
#21 = EDGE_CURVE('',#22,#24,#26,.T.);
#22 = VERTEX_POINT('',#23);
#23 = CARTESIAN_POINT('',(1.778,97.79,2.54));
#24 = VERTEX_POINT('',#25);
#25 = CARTESIAN_POINT('',(1.778,97.79,0.));
#26 = LINE('',#27,#28);
#27 = CARTESIAN_POINT('',(1.778,97.79,2.54));
#28 = VECTOR('',#29,1.);
#29 = DIRECTION('',(-0.,-0.,-1.));
#30 = ORIENTED_EDGE('',*,*,#31,.F.);
#31 = EDGE_CURVE('',#32,#24,#34,.T.);
#32 = VERTEX_POINT('',#33);
#33 = CARTESIAN_POINT('',(5.842,97.79,0.));
#34 = CIRCLE('',#35,2.032);
#35 = AXIS2_PLACEMENT_3D('',#36,#37,#38);
#36 = CARTESIAN_POINT('',(3.81,97.79,0.));
#37 = DIRECTION('',(0.,0.,-1.));
#38 = DIRECTION('',(-1.,0.,0.));
#39 = ORIENTED_EDGE('',*,*,#40,.F.);
#40 = EDGE_CURVE('',#41,#32,#43,.T.);
#41 = VERTEX_POINT('',#42);
#42 = CARTESIAN_POINT('',(5.842,97.79,2.54));
#43 = LINE('',#44,#45);
#44 = CARTESIAN_POINT('',(5.842,97.79,2.54));
#45 = VECTOR('',#46,1.);
#46 = DIRECTION('',(-0.,-0.,-1.));
#47 = ORIENTED_EDGE('',*,*,#48,.T.);
#48 = EDGE_CURVE('',#41,#22,#49,.T.);
#49 = CIRCLE('',#50,2.032);
#50 = AXIS2_PLACEMENT_3D('',#51,#52,#53);
#51 = CARTESIAN_POINT('',(3.81,97.79,2.54));
#52 = DIRECTION('',(0.,0.,-1.));
#53 = DIRECTION('',(-1.,0.,0.));
#54 = CYLINDRICAL_SURFACE('',#55,2.032);
#55 = AXIS2_PLACEMENT_3D('',#56,#57,#58);
#56 = CARTESIAN_POINT('',(3.81,97.79,2.54));
#57 = DIRECTION('',(-0.,-0.,-1.));
#58 = DIRECTION('',(-1.,0.,0.));
#59 = ADVANCED_FACE('',(#60),#96,.F.);
#60 = FACE_BOUND('',#61,.F.);
#61 = EDGE_LOOP('',(#62,#72,#81,#89));
#62 = ORIENTED_EDGE('',*,*,#63,.T.);
#63 = EDGE_CURVE('',#64,#66,#68,.T.);
#64 = VERTEX_POINT('',#65);
#65 = CARTESIAN_POINT('',(1.778,3.81,2.54));
#66 = VERTEX_POINT('',#67);
#67 = CARTESIAN_POINT('',(1.778,3.81,0.));
#68 = LINE('',#69,#70);
#69 = CARTESIAN_POINT('',(1.778,3.81,2.54));
#70 = VECTOR('',#71,1.);
#71 = DIRECTION('',(-0.,-0.,-1.));
#72 = ORIENTED_EDGE('',*,*,#73,.F.);
#73 = EDGE_CURVE('',#74,#66,#76,.T.);
#74 = VERTEX_POINT('',#75);
#75 = CARTESIAN_POINT('',(5.842,3.81,0.));
#76 = CIRCLE('',#77,2.032);
#77 = AXIS2_PLACEMENT_3D('',#78,#79,#80);
#78 = CARTESIAN_POINT('',(3.81,3.81,0.));
#79 = DIRECTION('',(0.,0.,-1.));
#80 = DIRECTION('',(-1.,0.,0.));
#81 = ORIENTED_EDGE('',*,*,#82,.F.);
#82 = EDGE_CURVE('',#83,#74,#85,.T.);
#83 = VERTEX_POINT('',#84);
#84 = CARTESIAN_POINT('',(5.842,3.81,2.54));
#85 = LINE('',#86,#87);
#86 = CARTESIAN_POINT('',(5.842,3.81,2.54));
#87 = VECTOR('',#88,1.);
#88 = DIRECTION('',(-0.,-0.,-1.));
#89 = ORIENTED_EDGE('',*,*,#90,.T.);
#90 = EDGE_CURVE('',#83,#64,#91,.T.);
#91 = CIRCLE('',#92,2.032);
#92 = AXIS2_PLACEMENT_3D('',#93,#94,#95);
#93 = CARTESIAN_POINT('',(3.81,3.81,2.54));
#94 = DIRECTION('',(0.,0.,-1.));
#95 = DIRECTION('',(-1.,0.,0.));
#96 = CYLINDRICAL_SURFACE('',#97,2.032);
#97 = AXIS2_PLACEMENT_3D('',#98,#99,#100);
#98 = CARTESIAN_POINT('',(3.81,3.81,2.54));
#99 = DIRECTION('',(-0.,-0.,-1.));
#100 = DIRECTION('',(-1.,0.,0.));
#101 = ADVANCED_FACE('',(#102),#138,.F.);
#102 = FACE_BOUND('',#103,.F.);
#103 = EDGE_LOOP('',(#104,#114,#123,#131));
#104 = ORIENTED_EDGE('',*,*,#105,.T.);
#105 = EDGE_CURVE('',#106,#108,#110,.T.);
#106 = VERTEX_POINT('',#107);
#107 = CARTESIAN_POINT('',(222.758,3.81,2.54));
#108 = VERTEX_POINT('',#109);
#109 = CARTESIAN_POINT('',(222.758,3.81,0.));
#110 = LINE('',#111,#112);
#111 = CARTESIAN_POINT('',(222.758,3.81,2.54));
#112 = VECTOR('',#113,1.);
#113 = DIRECTION('',(-0.,-0.,-1.));
#114 = ORIENTED_EDGE('',*,*,#115,.F.);
#115 = EDGE_CURVE('',#116,#108,#118,.T.);
#116 = VERTEX_POINT('',#117);
#117 = CARTESIAN_POINT('',(226.822,3.81,0.));
#118 = CIRCLE('',#119,2.032);
#119 = AXIS2_PLACEMENT_3D('',#120,#121,#122);
#120 = CARTESIAN_POINT('',(224.79,3.81,0.));
#121 = DIRECTION('',(0.,0.,-1.));
#122 = DIRECTION('',(-1.,0.,0.));
#123 = ORIENTED_EDGE('',*,*,#124,.F.);
#124 = EDGE_CURVE('',#125,#116,#127,.T.);
#125 = VERTEX_POINT('',#126);
#126 = CARTESIAN_POINT('',(226.822,3.81,2.54));
#127 = LINE('',#128,#129);
#128 = CARTESIAN_POINT('',(226.822,3.81,2.54));
#129 = VECTOR('',#130,1.);
#130 = DIRECTION('',(-0.,-0.,-1.));
#131 = ORIENTED_EDGE('',*,*,#132,.T.);
#132 = EDGE_CURVE('',#125,#106,#133,.T.);
#133 = CIRCLE('',#134,2.032);
#134 = AXIS2_PLACEMENT_3D('',#135,#136,#137);
#135 = CARTESIAN_POINT('',(224.79,3.81,2.54));
#136 = DIRECTION('',(0.,0.,-1.));
#137 = DIRECTION('',(-1.,0.,0.));
#138 = CYLINDRICAL_SURFACE('',#139,2.032);
#139 = AXIS2_PLACEMENT_3D('',#140,#141,#142);
#140 = CARTESIAN_POINT('',(224.79,3.81,2.54));
#141 = DIRECTION('',(-0.,-0.,-1.));
#142 = DIRECTION('',(-1.,0.,0.));
#143 = ADVANCED_FACE('',(#144),#180,.F.);
#144 = FACE_BOUND('',#145,.F.);
#145 = EDGE_LOOP('',(#146,#156,#165,#173));
#146 = ORIENTED_EDGE('',*,*,#147,.T.);
#147 = EDGE_CURVE('',#148,#150,#152,.T.);
#148 = VERTEX_POINT('',#149);
#149 = CARTESIAN_POINT('',(222.758,219.71,2.54));
#150 = VERTEX_POINT('',#151);
#151 = CARTESIAN_POINT('',(222.758,219.71,0.));
#152 = LINE('',#153,#154);
#153 = CARTESIAN_POINT('',(222.758,219.71,2.54));
#154 = VECTOR('',#155,1.);
#155 = DIRECTION('',(-0.,-0.,-1.));
#156 = ORIENTED_EDGE('',*,*,#157,.F.);
#157 = EDGE_CURVE('',#158,#150,#160,.T.);
#158 = VERTEX_POINT('',#159);
#159 = CARTESIAN_POINT('',(226.822,219.71,0.));
#160 = CIRCLE('',#161,2.032);
#161 = AXIS2_PLACEMENT_3D('',#162,#163,#164);
#162 = CARTESIAN_POINT('',(224.79,219.71,0.));
#163 = DIRECTION('',(0.,0.,-1.));
#164 = DIRECTION('',(-1.,0.,0.));
#165 = ORIENTED_EDGE('',*,*,#166,.F.);
#166 = EDGE_CURVE('',#167,#158,#169,.T.);
#167 = VERTEX_POINT('',#168);
#168 = CARTESIAN_POINT('',(226.822,219.71,2.54));
#169 = LINE('',#170,#171);
#170 = CARTESIAN_POINT('',(226.822,219.71,2.54));
#171 = VECTOR('',#172,1.);
#172 = DIRECTION('',(-0.,-0.,-1.));
#173 = ORIENTED_EDGE('',*,*,#174,.T.);
#174 = EDGE_CURVE('',#167,#148,#175,.T.);
#175 = CIRCLE('',#176,2.032);
#176 = AXIS2_PLACEMENT_3D('',#177,#178,#179);
#177 = CARTESIAN_POINT('',(224.79,219.71,2.54));
#178 = DIRECTION('',(0.,0.,-1.));
#179 = DIRECTION('',(-1.,0.,0.));
#180 = CYLINDRICAL_SURFACE('',#181,2.032);
#181 = AXIS2_PLACEMENT_3D('',#182,#183,#184);
#182 = CARTESIAN_POINT('',(224.79,219.71,2.54));
#183 = DIRECTION('',(-0.,-0.,-1.));
#184 = DIRECTION('',(-1.,0.,0.));
#185 = ADVANCED_FACE('',(#186),#222,.F.);
#186 = FACE_BOUND('',#187,.F.);
#187 = EDGE_LOOP('',(#188,#198,#207,#215));
#188 = ORIENTED_EDGE('',*,*,#189,.T.);
#189 = EDGE_CURVE('',#190,#192,#194,.T.);
#190 = VERTEX_POINT('',#191);
#191 = CARTESIAN_POINT('',(128.778,219.71,2.54));
#192 = VERTEX_POINT('',#193);
#193 = CARTESIAN_POINT('',(128.778,219.71,0.));
#194 = LINE('',#195,#196);
#195 = CARTESIAN_POINT('',(128.778,219.71,2.54));
#196 = VECTOR('',#197,1.);
#197 = DIRECTION('',(-0.,-0.,-1.));
#198 = ORIENTED_EDGE('',*,*,#199,.F.);
#199 = EDGE_CURVE('',#200,#192,#202,.T.);
#200 = VERTEX_POINT('',#201);
#201 = CARTESIAN_POINT('',(132.842,219.71,0.));
#202 = CIRCLE('',#203,2.032);
#203 = AXIS2_PLACEMENT_3D('',#204,#205,#206);
#204 = CARTESIAN_POINT('',(130.81,219.71,0.));
#205 = DIRECTION('',(0.,0.,-1.));
#206 = DIRECTION('',(-1.,0.,0.));
#207 = ORIENTED_EDGE('',*,*,#208,.F.);
#208 = EDGE_CURVE('',#209,#200,#211,.T.);
#209 = VERTEX_POINT('',#210);
#210 = CARTESIAN_POINT('',(132.842,219.71,2.54));
#211 = LINE('',#212,#213);
#212 = CARTESIAN_POINT('',(132.842,219.71,2.54));
#213 = VECTOR('',#214,1.);
#214 = DIRECTION('',(-0.,-0.,-1.));
#215 = ORIENTED_EDGE('',*,*,#216,.T.);
#216 = EDGE_CURVE('',#209,#190,#217,.T.);
#217 = CIRCLE('',#218,2.032);
#218 = AXIS2_PLACEMENT_3D('',#219,#220,#221);
#219 = CARTESIAN_POINT('',(130.81,219.71,2.54));
#220 = DIRECTION('',(0.,0.,-1.));
#221 = DIRECTION('',(-1.,0.,0.));
#222 = CYLINDRICAL_SURFACE('',#223,2.032);
#223 = AXIS2_PLACEMENT_3D('',#224,#225,#226);
#224 = CARTESIAN_POINT('',(130.81,219.71,2.54));
#225 = DIRECTION('',(-0.,-0.,-1.));
#226 = DIRECTION('',(-1.,0.,0.));
#227 = ADVANCED_FACE('',(#228),#262,.F.);
#228 = FACE_BOUND('',#229,.T.);
#229 = EDGE_LOOP('',(#230,#240,#248,#256));
#230 = ORIENTED_EDGE('',*,*,#231,.T.);
#231 = EDGE_CURVE('',#232,#234,#236,.T.);
#232 = VERTEX_POINT('',#233);
#233 = CARTESIAN_POINT('',(1.49308937752E-14,101.6,0.));
#234 = VERTEX_POINT('',#235);
#235 = CARTESIAN_POINT('',(0.,0.,0.));
#236 = LINE('',#237,#238);
#237 = CARTESIAN_POINT('',(0.,0.,0.));
#238 = VECTOR('',#239,1.);
#239 = DIRECTION('',(-1.469576158977E-16,-1.,-0.));
#240 = ORIENTED_EDGE('',*,*,#241,.F.);
#241 = EDGE_CURVE('',#242,#234,#244,.T.);
#242 = VERTEX_POINT('',#243);
#243 = CARTESIAN_POINT('',(0.,0.,2.54));
#244 = LINE('',#245,#246);
#245 = CARTESIAN_POINT('',(0.,0.,2.54));
#246 = VECTOR('',#247,1.);
#247 = DIRECTION('',(-0.,-0.,-1.));
#248 = ORIENTED_EDGE('',*,*,#249,.F.);
#249 = EDGE_CURVE('',#250,#242,#252,.T.);
#250 = VERTEX_POINT('',#251);
#251 = CARTESIAN_POINT('',(1.49308937752E-14,101.6,2.54));
#252 = LINE('',#253,#254);
#253 = CARTESIAN_POINT('',(0.,0.,2.54));
#254 = VECTOR('',#255,1.);
#255 = DIRECTION('',(-1.469576158977E-16,-1.,-0.));
#256 = ORIENTED_EDGE('',*,*,#257,.T.);
#257 = EDGE_CURVE('',#250,#232,#258,.T.);
#258 = LINE('',#259,#260);
#259 = CARTESIAN_POINT('',(1.49308937752E-14,101.6,2.54));
#260 = VECTOR('',#261,1.);
#261 = DIRECTION('',(-0.,-0.,-1.));
#262 = PLANE('',#263);
#263 = AXIS2_PLACEMENT_3D('',#264,#265,#266);
#264 = CARTESIAN_POINT('',(0.,0.,2.54));
#265 = DIRECTION('',(1.,-1.469576158977E-16,0.));
#266 = DIRECTION('',(1.469576158977E-16,1.,0.));
#267 = ADVANCED_FACE('',(#268),#293,.F.);
#268 = FACE_BOUND('',#269,.T.);
#269 = EDGE_LOOP('',(#270,#278,#286,#292));
#270 = ORIENTED_EDGE('',*,*,#271,.T.);
#271 = EDGE_CURVE('',#234,#272,#274,.T.);
#272 = VERTEX_POINT('',#273);
#273 = CARTESIAN_POINT('',(228.6,0.,0.));
#274 = LINE('',#275,#276);
#275 = CARTESIAN_POINT('',(0.,0.,0.));
#276 = VECTOR('',#277,1.);
#277 = DIRECTION('',(1.,0.,0.));
#278 = ORIENTED_EDGE('',*,*,#279,.F.);
#279 = EDGE_CURVE('',#280,#272,#282,.T.);
#280 = VERTEX_POINT('',#281);
#281 = CARTESIAN_POINT('',(228.6,0.,2.54));
#282 = LINE('',#283,#284);
#283 = CARTESIAN_POINT('',(228.6,0.,2.54));
#284 = VECTOR('',#285,1.);
#285 = DIRECTION('',(-0.,-0.,-1.));
#286 = ORIENTED_EDGE('',*,*,#287,.F.);
#287 = EDGE_CURVE('',#242,#280,#288,.T.);
#288 = LINE('',#289,#290);
#289 = CARTESIAN_POINT('',(0.,0.,2.54));
#290 = VECTOR('',#291,1.);
#291 = DIRECTION('',(1.,0.,0.));
#292 = ORIENTED_EDGE('',*,*,#241,.T.);
#293 = PLANE('',#294);
#294 = AXIS2_PLACEMENT_3D('',#295,#296,#297);
#295 = CARTESIAN_POINT('',(0.,0.,2.54));
#296 = DIRECTION('',(0.,1.,0.));
#297 = DIRECTION('',(0.,-0.,1.));
#298 = ADVANCED_FACE('',(#299),#324,.F.);
#299 = FACE_BOUND('',#300,.T.);
#300 = EDGE_LOOP('',(#301,#309,#317,#323));
#301 = ORIENTED_EDGE('',*,*,#302,.T.);
#302 = EDGE_CURVE('',#272,#303,#305,.T.);
#303 = VERTEX_POINT('',#304);
#304 = CARTESIAN_POINT('',(228.6,223.52,0.));
#305 = LINE('',#306,#307);
#306 = CARTESIAN_POINT('',(228.6,0.,0.));
#307 = VECTOR('',#308,1.);
#308 = DIRECTION('',(0.,1.,0.));
#309 = ORIENTED_EDGE('',*,*,#310,.F.);
#310 = EDGE_CURVE('',#311,#303,#313,.T.);
#311 = VERTEX_POINT('',#312);
#312 = CARTESIAN_POINT('',(228.6,223.52,2.54));
#313 = LINE('',#314,#315);
#314 = CARTESIAN_POINT('',(228.6,223.52,2.54));
#315 = VECTOR('',#316,1.);
#316 = DIRECTION('',(-0.,-0.,-1.));
#317 = ORIENTED_EDGE('',*,*,#318,.F.);
#318 = EDGE_CURVE('',#280,#311,#319,.T.);
#319 = LINE('',#320,#321);
#320 = CARTESIAN_POINT('',(228.6,0.,2.54));
#321 = VECTOR('',#322,1.);
#322 = DIRECTION('',(0.,1.,0.));
#323 = ORIENTED_EDGE('',*,*,#279,.T.);
#324 = PLANE('',#325);
#325 = AXIS2_PLACEMENT_3D('',#326,#327,#328);
#326 = CARTESIAN_POINT('',(228.6,0.,2.54));
#327 = DIRECTION('',(-1.,0.,0.));
#328 = DIRECTION('',(0.,0.,1.));
#329 = ADVANCED_FACE('',(#330),#355,.F.);
#330 = FACE_BOUND('',#331,.T.);
#331 = EDGE_LOOP('',(#332,#340,#348,#354));
#332 = ORIENTED_EDGE('',*,*,#333,.T.);
#333 = EDGE_CURVE('',#303,#334,#336,.T.);
#334 = VERTEX_POINT('',#335);
#335 = CARTESIAN_POINT('',(127.,223.52,0.));
#336 = LINE('',#337,#338);
#337 = CARTESIAN_POINT('',(127.,223.52,0.));
#338 = VECTOR('',#339,1.);
#339 = DIRECTION('',(-1.,-0.,-0.));
#340 = ORIENTED_EDGE('',*,*,#341,.F.);
#341 = EDGE_CURVE('',#342,#334,#344,.T.);
#342 = VERTEX_POINT('',#343);
#343 = CARTESIAN_POINT('',(127.,223.52,2.54));
#344 = LINE('',#345,#346);
#345 = CARTESIAN_POINT('',(127.,223.52,2.54));
#346 = VECTOR('',#347,1.);
#347 = DIRECTION('',(-0.,-0.,-1.));
#348 = ORIENTED_EDGE('',*,*,#349,.F.);
#349 = EDGE_CURVE('',#311,#342,#350,.T.);
#350 = LINE('',#351,#352);
#351 = CARTESIAN_POINT('',(127.,223.52,2.54));
#352 = VECTOR('',#353,1.);
#353 = DIRECTION('',(-1.,-0.,-0.));
#354 = ORIENTED_EDGE('',*,*,#310,.T.);
#355 = PLANE('',#356);
#356 = AXIS2_PLACEMENT_3D('',#357,#358,#359);
#357 = CARTESIAN_POINT('',(127.,223.52,2.54));
#358 = DIRECTION('',(0.,-1.,0.));
#359 = DIRECTION('',(0.,-0.,-1.));
#360 = ADVANCED_FACE('',(#361),#386,.F.);
#361 = FACE_BOUND('',#362,.T.);
#362 = EDGE_LOOP('',(#363,#371,#379,#385));
#363 = ORIENTED_EDGE('',*,*,#364,.T.);
#364 = EDGE_CURVE('',#334,#365,#367,.T.);
#365 = VERTEX_POINT('',#366);
#366 = CARTESIAN_POINT('',(127.,101.6,0.));
#367 = LINE('',#368,#369);
#368 = CARTESIAN_POINT('',(127.,223.52,0.));
#369 = VECTOR('',#370,1.);
#370 = DIRECTION('',(2.27653999472E-16,-1.,0.));
#371 = ORIENTED_EDGE('',*,*,#372,.F.);
#372 = EDGE_CURVE('',#373,#365,#375,.T.);
#373 = VERTEX_POINT('',#374);
#374 = CARTESIAN_POINT('',(127.,101.6,2.54));
#375 = LINE('',#376,#377);
#376 = CARTESIAN_POINT('',(127.,101.6,2.54));
#377 = VECTOR('',#378,1.);
#378 = DIRECTION('',(-0.,-0.,-1.));
#379 = ORIENTED_EDGE('',*,*,#380,.F.);
#380 = EDGE_CURVE('',#342,#373,#381,.T.);
#381 = LINE('',#382,#383);
#382 = CARTESIAN_POINT('',(127.,223.52,2.54));
#383 = VECTOR('',#384,1.);
#384 = DIRECTION('',(2.27653999472E-16,-1.,0.));
#385 = ORIENTED_EDGE('',*,*,#341,.T.);
#386 = PLANE('',#387);
#387 = AXIS2_PLACEMENT_3D('',#388,#389,#390);
#388 = CARTESIAN_POINT('',(127.,223.52,2.54));
#389 = DIRECTION('',(1.,2.27653999472E-16,-0.));
#390 = DIRECTION('',(-2.27653999472E-16,1.,0.));
#391 = ADVANCED_FACE('',(#392),#408,.F.);
#392 = FACE_BOUND('',#393,.T.);
#393 = EDGE_LOOP('',(#394,#400,#401,#407));
#394 = ORIENTED_EDGE('',*,*,#395,.T.);
#395 = EDGE_CURVE('',#365,#232,#396,.T.);
#396 = LINE('',#397,#398);
#397 = CARTESIAN_POINT('',(1.49308937752E-14,101.6,0.));
#398 = VECTOR('',#399,1.);
#399 = DIRECTION('',(-1.,-0.,-0.));
#400 = ORIENTED_EDGE('',*,*,#257,.F.);
#401 = ORIENTED_EDGE('',*,*,#402,.F.);
#402 = EDGE_CURVE('',#373,#250,#403,.T.);
#403 = LINE('',#404,#405);
#404 = CARTESIAN_POINT('',(1.49308937752E-14,101.6,2.54));
#405 = VECTOR('',#406,1.);
#406 = DIRECTION('',(-1.,-0.,-0.));
#407 = ORIENTED_EDGE('',*,*,#372,.T.);
#408 = PLANE('',#409);
#409 = AXIS2_PLACEMENT_3D('',#410,#411,#412);
#410 = CARTESIAN_POINT('',(1.49308937752E-14,101.6,2.54));
#411 = DIRECTION('',(0.,-1.,0.));
#412 = DIRECTION('',(0.,-0.,-1.));
#413 = ADVANCED_FACE('',(#414,#424,#434,#444,#454,#464),#472,.F.);
#414 = FACE_BOUND('',#415,.T.);
#415 = EDGE_LOOP('',(#416,#423));
#416 = ORIENTED_EDGE('',*,*,#417,.T.);
#417 = EDGE_CURVE('',#22,#41,#418,.T.);
#418 = CIRCLE('',#419,2.032);
#419 = AXIS2_PLACEMENT_3D('',#420,#421,#422);
#420 = CARTESIAN_POINT('',(3.81,97.79,2.54));
#421 = DIRECTION('',(0.,0.,-1.));
#422 = DIRECTION('',(-1.,0.,0.));
#423 = ORIENTED_EDGE('',*,*,#48,.T.);
#424 = FACE_BOUND('',#425,.T.);
#425 = EDGE_LOOP('',(#426,#433));
#426 = ORIENTED_EDGE('',*,*,#427,.T.);
#427 = EDGE_CURVE('',#64,#83,#428,.T.);
#428 = CIRCLE('',#429,2.032);
#429 = AXIS2_PLACEMENT_3D('',#430,#431,#432);
#430 = CARTESIAN_POINT('',(3.81,3.81,2.54));
#431 = DIRECTION('',(0.,0.,-1.));
#432 = DIRECTION('',(-1.,0.,0.));
#433 = ORIENTED_EDGE('',*,*,#90,.T.);
#434 = FACE_BOUND('',#435,.T.);
#435 = EDGE_LOOP('',(#436,#443));
#436 = ORIENTED_EDGE('',*,*,#437,.T.);
#437 = EDGE_CURVE('',#106,#125,#438,.T.);
#438 = CIRCLE('',#439,2.032);
#439 = AXIS2_PLACEMENT_3D('',#440,#441,#442);
#440 = CARTESIAN_POINT('',(224.79,3.81,2.54));
#441 = DIRECTION('',(0.,0.,-1.));
#442 = DIRECTION('',(-1.,0.,0.));
#443 = ORIENTED_EDGE('',*,*,#132,.T.);
#444 = FACE_BOUND('',#445,.T.);
#445 = EDGE_LOOP('',(#446,#453));
#446 = ORIENTED_EDGE('',*,*,#447,.T.);
#447 = EDGE_CURVE('',#148,#167,#448,.T.);
#448 = CIRCLE('',#449,2.032);
#449 = AXIS2_PLACEMENT_3D('',#450,#451,#452);
#450 = CARTESIAN_POINT('',(224.79,219.71,2.54));
#451 = DIRECTION('',(0.,0.,-1.));
#452 = DIRECTION('',(-1.,0.,0.));
#453 = ORIENTED_EDGE('',*,*,#174,.T.);
#454 = FACE_BOUND('',#455,.T.);
#455 = EDGE_LOOP('',(#456,#463));
#456 = ORIENTED_EDGE('',*,*,#457,.T.);
#457 = EDGE_CURVE('',#190,#209,#458,.T.);
#458 = CIRCLE('',#459,2.032);
#459 = AXIS2_PLACEMENT_3D('',#460,#461,#462);
#460 = CARTESIAN_POINT('',(130.81,219.71,2.54));
#461 = DIRECTION('',(0.,0.,-1.));
#462 = DIRECTION('',(-1.,0.,0.));
#463 = ORIENTED_EDGE('',*,*,#216,.T.);
#464 = FACE_BOUND('',#465,.T.);
#465 = EDGE_LOOP('',(#466,#467,#468,#469,#470,#471));
#466 = ORIENTED_EDGE('',*,*,#249,.T.);
#467 = ORIENTED_EDGE('',*,*,#287,.T.);
#468 = ORIENTED_EDGE('',*,*,#318,.T.);
#469 = ORIENTED_EDGE('',*,*,#349,.T.);
#470 = ORIENTED_EDGE('',*,*,#380,.T.);
#471 = ORIENTED_EDGE('',*,*,#402,.T.);
#472 = PLANE('',#473);
#473 = AXIS2_PLACEMENT_3D('',#474,#475,#476);
#474 = CARTESIAN_POINT('',(0.,0.,2.54));
#475 = DIRECTION('',(0.,0.,-1.));
#476 = DIRECTION('',(-1.,0.,-0.));
#477 = ADVANCED_FACE('',(#478,#488,#498,#508,#518,#528,#578),#586,.T.);
#478 = FACE_BOUND('',#479,.T.);
#479 = EDGE_LOOP('',(#480,#487));
#480 = ORIENTED_EDGE('',*,*,#481,.F.);
#481 = EDGE_CURVE('',#24,#32,#482,.T.);
#482 = CIRCLE('',#483,2.032);
#483 = AXIS2_PLACEMENT_3D('',#484,#485,#486);
#484 = CARTESIAN_POINT('',(3.81,97.79,0.));
#485 = DIRECTION('',(0.,0.,-1.));
#486 = DIRECTION('',(-1.,0.,0.));
#487 = ORIENTED_EDGE('',*,*,#31,.F.);
#488 = FACE_BOUND('',#489,.T.);
#489 = EDGE_LOOP('',(#490,#497));
#490 = ORIENTED_EDGE('',*,*,#491,.F.);
#491 = EDGE_CURVE('',#66,#74,#492,.T.);
#492 = CIRCLE('',#493,2.032);
#493 = AXIS2_PLACEMENT_3D('',#494,#495,#496);
#494 = CARTESIAN_POINT('',(3.81,3.81,0.));
#495 = DIRECTION('',(0.,0.,-1.));
#496 = DIRECTION('',(-1.,0.,0.));
#497 = ORIENTED_EDGE('',*,*,#73,.F.);
#498 = FACE_BOUND('',#499,.T.);
#499 = EDGE_LOOP('',(#500,#507));
#500 = ORIENTED_EDGE('',*,*,#501,.F.);
#501 = EDGE_CURVE('',#108,#116,#502,.T.);
#502 = CIRCLE('',#503,2.032);
#503 = AXIS2_PLACEMENT_3D('',#504,#505,#506);
#504 = CARTESIAN_POINT('',(224.79,3.81,0.));
#505 = DIRECTION('',(0.,0.,-1.));
#506 = DIRECTION('',(-1.,0.,0.));
#507 = ORIENTED_EDGE('',*,*,#115,.F.);
#508 = FACE_BOUND('',#509,.T.);
#509 = EDGE_LOOP('',(#510,#517));
#510 = ORIENTED_EDGE('',*,*,#511,.F.);
#511 = EDGE_CURVE('',#150,#158,#512,.T.);
#512 = CIRCLE('',#513,2.032);
#513 = AXIS2_PLACEMENT_3D('',#514,#515,#516);
#514 = CARTESIAN_POINT('',(224.79,219.71,0.));
#515 = DIRECTION('',(0.,0.,-1.));
#516 = DIRECTION('',(-1.,0.,0.));
#517 = ORIENTED_EDGE('',*,*,#157,.F.);
#518 = FACE_BOUND('',#519,.T.);
#519 = EDGE_LOOP('',(#520,#527));
#520 = ORIENTED_EDGE('',*,*,#521,.F.);
#521 = EDGE_CURVE('',#192,#200,#522,.T.);
#522 = CIRCLE('',#523,2.032);
#523 = AXIS2_PLACEMENT_3D('',#524,#525,#526);
#524 = CARTESIAN_POINT('',(130.81,219.71,0.));
#525 = DIRECTION('',(0.,0.,-1.));
#526 = DIRECTION('',(-1.,0.,0.));
#527 = ORIENTED_EDGE('',*,*,#199,.F.);
#528 = FACE_BOUND('',#529,.T.);
#529 = EDGE_LOOP('',(#530,#540,#548,#556,#564,#572));
#530 = ORIENTED_EDGE('',*,*,#531,.F.);
#531 = EDGE_CURVE('',#532,#534,#536,.T.);
#532 = VERTEX_POINT('',#533);
#533 = CARTESIAN_POINT('',(7.62,93.98,0.));
#534 = VERTEX_POINT('',#535);
#535 = CARTESIAN_POINT('',(134.62,93.98,0.));
#536 = LINE('',#537,#538);
#537 = CARTESIAN_POINT('',(-1.026956297778E-14,93.98,0.));
#538 = VECTOR('',#539,1.);
#539 = DIRECTION('',(1.,1.092739197466E-16,0.));
#540 = ORIENTED_EDGE('',*,*,#541,.F.);
#541 = EDGE_CURVE('',#542,#532,#544,.T.);
#542 = VERTEX_POINT('',#543);
#543 = CARTESIAN_POINT('',(7.62,7.62,0.));
#544 = LINE('',#545,#546);
#545 = CARTESIAN_POINT('',(7.62,9.183830166936E-16,0.));
#546 = VECTOR('',#547,1.);
#547 = DIRECTION('',(-1.205227056028E-16,1.,0.));
#548 = ORIENTED_EDGE('',*,*,#549,.F.);
#549 = EDGE_CURVE('',#550,#542,#552,.T.);
#550 = VERTEX_POINT('',#551);
#551 = CARTESIAN_POINT('',(220.98,7.62,0.));
#552 = LINE('',#553,#554);
#553 = CARTESIAN_POINT('',(0.,7.62,0.));
#554 = VECTOR('',#555,1.);
#555 = DIRECTION('',(-1.,0.,0.));
#556 = ORIENTED_EDGE('',*,*,#557,.F.);
#557 = EDGE_CURVE('',#558,#550,#560,.T.);
#558 = VERTEX_POINT('',#559);
#559 = CARTESIAN_POINT('',(220.98,215.9,0.));
#560 = LINE('',#561,#562);
#561 = CARTESIAN_POINT('',(220.98,0.,0.));
#562 = VECTOR('',#563,1.);
#563 = DIRECTION('',(0.,-1.,0.));
#564 = ORIENTED_EDGE('',*,*,#565,.F.);
#565 = EDGE_CURVE('',#566,#558,#568,.T.);
#566 = VERTEX_POINT('',#567);
#567 = CARTESIAN_POINT('',(134.62,215.9,0.));
#568 = LINE('',#569,#570);
#569 = CARTESIAN_POINT('',(0.,215.9,0.));
#570 = VECTOR('',#571,1.);
#571 = DIRECTION('',(1.,0.,0.));
#572 = ORIENTED_EDGE('',*,*,#573,.F.);
#573 = EDGE_CURVE('',#534,#566,#574,.T.);
#574 = LINE('',#575,#576);
#575 = CARTESIAN_POINT('',(134.62,3.064678140892E-14,0.));
#576 = VECTOR('',#577,1.);
#577 = DIRECTION('',(-2.27653999472E-16,1.,0.));
#578 = FACE_BOUND('',#579,.T.);
#579 = EDGE_LOOP('',(#580,#581,#582,#583,#584,#585));
#580 = ORIENTED_EDGE('',*,*,#231,.F.);
#581 = ORIENTED_EDGE('',*,*,#395,.F.);
#582 = ORIENTED_EDGE('',*,*,#364,.F.);
#583 = ORIENTED_EDGE('',*,*,#333,.F.);
#584 = ORIENTED_EDGE('',*,*,#302,.F.);
#585 = ORIENTED_EDGE('',*,*,#271,.F.);
#586 = PLANE('',#587);
#587 = AXIS2_PLACEMENT_3D('',#588,#589,#590);
#588 = CARTESIAN_POINT('',(0.,0.,0.));
#589 = DIRECTION('',(0.,0.,-1.));
#590 = DIRECTION('',(-1.,0.,-0.));
#591 = ADVANCED_FACE('',(#592),#617,.T.);
#592 = FACE_BOUND('',#593,.T.);
#593 = EDGE_LOOP('',(#594,#602,#603,#611));
#594 = ORIENTED_EDGE('',*,*,#595,.T.);
#595 = EDGE_CURVE('',#596,#532,#598,.T.);
#596 = VERTEX_POINT('',#597);
#597 = CARTESIAN_POINT('',(7.62,93.98,-3.81));
#598 = LINE('',#599,#600);
#599 = CARTESIAN_POINT('',(7.62,93.98,-3.81));
#600 = VECTOR('',#601,1.);
#601 = DIRECTION('',(0.,0.,1.));
#602 = ORIENTED_EDGE('',*,*,#531,.T.);
#603 = ORIENTED_EDGE('',*,*,#604,.F.);
#604 = EDGE_CURVE('',#605,#534,#607,.T.);
#605 = VERTEX_POINT('',#606);
#606 = CARTESIAN_POINT('',(134.62,93.98,-3.81));
#607 = LINE('',#608,#609);
#608 = CARTESIAN_POINT('',(134.62,93.98,-3.81));
#609 = VECTOR('',#610,1.);
#610 = DIRECTION('',(0.,0.,1.));
#611 = ORIENTED_EDGE('',*,*,#612,.T.);
#612 = EDGE_CURVE('',#605,#596,#613,.T.);
#613 = LINE('',#614,#615);
#614 = CARTESIAN_POINT('',(134.62,93.98,-3.81));
#615 = VECTOR('',#616,1.);
#616 = DIRECTION('',(-1.,-1.092739197466E-16,0.));
#617 = PLANE('',#618);
#618 = AXIS2_PLACEMENT_3D('',#619,#620,#621);
#619 = CARTESIAN_POINT('',(134.62,93.98,-3.81));
#620 = DIRECTION('',(-1.092739197466E-16,1.,0.));
#621 = DIRECTION('',(-1.,-1.092739197466E-16,0.));
#622 = ADVANCED_FACE('',(#623),#641,.T.);
#623 = FACE_BOUND('',#624,.T.);
#624 = EDGE_LOOP('',(#625,#626,#627,#635));
#625 = ORIENTED_EDGE('',*,*,#604,.T.);
#626 = ORIENTED_EDGE('',*,*,#573,.T.);
#627 = ORIENTED_EDGE('',*,*,#628,.F.);
#628 = EDGE_CURVE('',#629,#566,#631,.T.);
#629 = VERTEX_POINT('',#630);
#630 = CARTESIAN_POINT('',(134.62,215.9,-3.81));
#631 = LINE('',#632,#633);
#632 = CARTESIAN_POINT('',(134.62,215.9,-3.81));
#633 = VECTOR('',#634,1.);
#634 = DIRECTION('',(0.,0.,1.));
#635 = ORIENTED_EDGE('',*,*,#636,.T.);
#636 = EDGE_CURVE('',#629,#605,#637,.T.);
#637 = LINE('',#638,#639);
#638 = CARTESIAN_POINT('',(134.62,215.9,-3.81));
#639 = VECTOR('',#640,1.);
#640 = DIRECTION('',(2.27653999472E-16,-1.,0.));
#641 = PLANE('',#642);
#642 = AXIS2_PLACEMENT_3D('',#643,#644,#645);
#643 = CARTESIAN_POINT('',(134.62,215.9,-3.81));
#644 = DIRECTION('',(-1.,-2.27653999472E-16,0.));
#645 = DIRECTION('',(2.27653999472E-16,-1.,0.));
#646 = ADVANCED_FACE('',(#647),#665,.T.);
#647 = FACE_BOUND('',#648,.T.);
#648 = EDGE_LOOP('',(#649,#650,#651,#659));
#649 = ORIENTED_EDGE('',*,*,#628,.T.);
#650 = ORIENTED_EDGE('',*,*,#565,.T.);
#651 = ORIENTED_EDGE('',*,*,#652,.F.);
#652 = EDGE_CURVE('',#653,#558,#655,.T.);
#653 = VERTEX_POINT('',#654);
#654 = CARTESIAN_POINT('',(220.98,215.9,-3.81));
#655 = LINE('',#656,#657);
#656 = CARTESIAN_POINT('',(220.98,215.9,-3.81));
#657 = VECTOR('',#658,1.);
#658 = DIRECTION('',(0.,0.,1.));
#659 = ORIENTED_EDGE('',*,*,#660,.T.);
#660 = EDGE_CURVE('',#653,#629,#661,.T.);
#661 = LINE('',#662,#663);
#662 = CARTESIAN_POINT('',(220.98,215.9,-3.81));
#663 = VECTOR('',#664,1.);
#664 = DIRECTION('',(-1.,0.,0.));
#665 = PLANE('',#666);
#666 = AXIS2_PLACEMENT_3D('',#667,#668,#669);
#667 = CARTESIAN_POINT('',(220.98,215.9,-3.81));
#668 = DIRECTION('',(0.,1.,-0.));
#669 = DIRECTION('',(0.,0.,1.));
#670 = ADVANCED_FACE('',(#671),#689,.T.);
#671 = FACE_BOUND('',#672,.T.);
#672 = EDGE_LOOP('',(#673,#674,#675,#683));
#673 = ORIENTED_EDGE('',*,*,#652,.T.);
#674 = ORIENTED_EDGE('',*,*,#557,.T.);
#675 = ORIENTED_EDGE('',*,*,#676,.F.);
#676 = EDGE_CURVE('',#677,#550,#679,.T.);
#677 = VERTEX_POINT('',#678);
#678 = CARTESIAN_POINT('',(220.98,7.62,-3.81));
#679 = LINE('',#680,#681);
#680 = CARTESIAN_POINT('',(220.98,7.62,-3.81));
#681 = VECTOR('',#682,1.);
#682 = DIRECTION('',(0.,0.,1.));
#683 = ORIENTED_EDGE('',*,*,#684,.T.);
#684 = EDGE_CURVE('',#677,#653,#685,.T.);
#685 = LINE('',#686,#687);
#686 = CARTESIAN_POINT('',(220.98,7.62,-3.81));
#687 = VECTOR('',#688,1.);
#688 = DIRECTION('',(0.,1.,0.));
#689 = PLANE('',#690);
#690 = AXIS2_PLACEMENT_3D('',#691,#692,#693);
#691 = CARTESIAN_POINT('',(220.98,7.62,-3.81));
#692 = DIRECTION('',(1.,0.,0.));
#693 = DIRECTION('',(0.,0.,-1.));
#694 = ADVANCED_FACE('',(#695),#713,.T.);
#695 = FACE_BOUND('',#696,.T.);
#696 = EDGE_LOOP('',(#697,#698,#699,#707));
#697 = ORIENTED_EDGE('',*,*,#676,.T.);
#698 = ORIENTED_EDGE('',*,*,#549,.T.);
#699 = ORIENTED_EDGE('',*,*,#700,.F.);
#700 = EDGE_CURVE('',#701,#542,#703,.T.);
#701 = VERTEX_POINT('',#702);
#702 = CARTESIAN_POINT('',(7.62,7.62,-3.81));
#703 = LINE('',#704,#705);
#704 = CARTESIAN_POINT('',(7.62,7.62,-3.81));
#705 = VECTOR('',#706,1.);
#706 = DIRECTION('',(0.,0.,1.));
#707 = ORIENTED_EDGE('',*,*,#708,.T.);
#708 = EDGE_CURVE('',#701,#677,#709,.T.);
#709 = LINE('',#710,#711);
#710 = CARTESIAN_POINT('',(7.62,7.62,-3.81));
#711 = VECTOR('',#712,1.);
#712 = DIRECTION('',(1.,0.,0.));
#713 = PLANE('',#714);
#714 = AXIS2_PLACEMENT_3D('',#715,#716,#717);
#715 = CARTESIAN_POINT('',(7.62,7.62,-3.81));
#716 = DIRECTION('',(0.,-1.,0.));
#717 = DIRECTION('',(0.,-0.,-1.));
#718 = ADVANCED_FACE('',(#719),#730,.T.);
#719 = FACE_BOUND('',#720,.T.);
#720 = EDGE_LOOP('',(#721,#722,#723,#724));
#721 = ORIENTED_EDGE('',*,*,#700,.T.);
#722 = ORIENTED_EDGE('',*,*,#541,.T.);
#723 = ORIENTED_EDGE('',*,*,#595,.F.);
#724 = ORIENTED_EDGE('',*,*,#725,.T.);
#725 = EDGE_CURVE('',#596,#701,#726,.T.);
#726 = LINE('',#727,#728);
#727 = CARTESIAN_POINT('',(7.62,93.98,-3.81));
#728 = VECTOR('',#729,1.);
#729 = DIRECTION('',(1.205227056028E-16,-1.,0.));
#730 = PLANE('',#731);
#731 = AXIS2_PLACEMENT_3D('',#732,#733,#734);
#732 = CARTESIAN_POINT('',(7.62,93.98,-3.81));
#733 = DIRECTION('',(-1.,-1.205227056028E-16,0.));
#734 = DIRECTION('',(1.205227056028E-16,-1.,0.));
#735 = ADVANCED_FACE('',(#736),#744,.F.);
#736 = FACE_BOUND('',#737,.T.);
#737 = EDGE_LOOP('',(#738,#739,#740,#741,#742,#743));
#738 = ORIENTED_EDGE('',*,*,#612,.F.);
#739 = ORIENTED_EDGE('',*,*,#636,.F.);
#740 = ORIENTED_EDGE('',*,*,#660,.F.);
#741 = ORIENTED_EDGE('',*,*,#684,.F.);
#742 = ORIENTED_EDGE('',*,*,#708,.F.);
#743 = ORIENTED_EDGE('',*,*,#725,.F.);
#744 = PLANE('',#745);
#745 = AXIS2_PLACEMENT_3D('',#746,#747,#748);
#746 = CARTESIAN_POINT('',(0.,0.,-3.81));
#747 = DIRECTION('',(0.,0.,1.));
#748 = DIRECTION('',(1.,0.,-0.));
#749 = ADVANCED_FACE('',(#750),#756,.F.);
#750 = FACE_BOUND('',#751,.F.);
#751 = EDGE_LOOP('',(#752,#753,#754,#755));
#752 = ORIENTED_EDGE('',*,*,#521,.F.);
#753 = ORIENTED_EDGE('',*,*,#189,.F.);
#754 = ORIENTED_EDGE('',*,*,#457,.T.);
#755 = ORIENTED_EDGE('',*,*,#208,.T.);
#756 = CYLINDRICAL_SURFACE('',#757,2.032);
#757 = AXIS2_PLACEMENT_3D('',#758,#759,#760);
#758 = CARTESIAN_POINT('',(130.81,219.71,2.54));
#759 = DIRECTION('',(-0.,-0.,-1.));
#760 = DIRECTION('',(-1.,0.,0.));
#761 = ADVANCED_FACE('',(#762),#768,.F.);
#762 = FACE_BOUND('',#763,.F.);
#763 = EDGE_LOOP('',(#764,#765,#766,#767));
#764 = ORIENTED_EDGE('',*,*,#511,.F.);
#765 = ORIENTED_EDGE('',*,*,#147,.F.);
#766 = ORIENTED_EDGE('',*,*,#447,.T.);
#767 = ORIENTED_EDGE('',*,*,#166,.T.);
#768 = CYLINDRICAL_SURFACE('',#769,2.032);
#769 = AXIS2_PLACEMENT_3D('',#770,#771,#772);
#770 = CARTESIAN_POINT('',(224.79,219.71,2.54));
#771 = DIRECTION('',(-0.,-0.,-1.));
#772 = DIRECTION('',(-1.,0.,0.));
#773 = ADVANCED_FACE('',(#774),#780,.F.);
#774 = FACE_BOUND('',#775,.F.);
#775 = EDGE_LOOP('',(#776,#777,#778,#779));
#776 = ORIENTED_EDGE('',*,*,#501,.F.);
#777 = ORIENTED_EDGE('',*,*,#105,.F.);
#778 = ORIENTED_EDGE('',*,*,#437,.T.);
#779 = ORIENTED_EDGE('',*,*,#124,.T.);
#780 = CYLINDRICAL_SURFACE('',#781,2.032);
#781 = AXIS2_PLACEMENT_3D('',#782,#783,#784);
#782 = CARTESIAN_POINT('',(224.79,3.81,2.54));
#783 = DIRECTION('',(-0.,-0.,-1.));
#784 = DIRECTION('',(-1.,0.,0.));
#785 = ADVANCED_FACE('',(#786),#792,.F.);
#786 = FACE_BOUND('',#787,.F.);
#787 = EDGE_LOOP('',(#788,#789,#790,#791));
#788 = ORIENTED_EDGE('',*,*,#491,.F.);
#789 = ORIENTED_EDGE('',*,*,#63,.F.);
#790 = ORIENTED_EDGE('',*,*,#427,.T.);
#791 = ORIENTED_EDGE('',*,*,#82,.T.);
#792 = CYLINDRICAL_SURFACE('',#793,2.032);
#793 = AXIS2_PLACEMENT_3D('',#794,#795,#796);
#794 = CARTESIAN_POINT('',(3.81,3.81,2.54));
#795 = DIRECTION('',(-0.,-0.,-1.));
#796 = DIRECTION('',(-1.,0.,0.));
#797 = ADVANCED_FACE('',(#798),#804,.F.);
#798 = FACE_BOUND('',#799,.F.);
#799 = EDGE_LOOP('',(#800,#801,#802,#803));
#800 = ORIENTED_EDGE('',*,*,#481,.F.);
#801 = ORIENTED_EDGE('',*,*,#21,.F.);
#802 = ORIENTED_EDGE('',*,*,#417,.T.);
#803 = ORIENTED_EDGE('',*,*,#40,.T.);
#804 = CYLINDRICAL_SURFACE('',#805,2.032);
#805 = AXIS2_PLACEMENT_3D('',#806,#807,#808);
#806 = CARTESIAN_POINT('',(3.81,97.79,2.54));
#807 = DIRECTION('',(-0.,-0.,-1.));
#808 = DIRECTION('',(-1.,0.,0.));
#809 = ( GEOMETRIC_REPRESENTATION_CONTEXT(3) 
GLOBAL_UNCERTAINTY_ASSIGNED_CONTEXT((#813)) GLOBAL_UNIT_ASSIGNED_CONTEXT
((#810,#811,#812)) REPRESENTATION_CONTEXT('Context #1',
  '3D Context with UNIT and UNCERTAINTY') );
#810 = ( LENGTH_UNIT() NAMED_UNIT(*) SI_UNIT(.MILLI.,.METRE.) );
#811 = ( NAMED_UNIT(*) PLANE_ANGLE_UNIT() SI_UNIT($,.RADIAN.) );
#812 = ( NAMED_UNIT(*) SI_UNIT($,.STERADIAN.) SOLID_ANGLE_UNIT() );
#813 = UNCERTAINTY_MEASURE_WITH_UNIT(LENGTH_MEASURE(1.E-07),#810,
  'distance_accuracy_value','confusion accuracy');
#814 = PRODUCT_RELATED_PRODUCT_CATEGORY('part',$,(#7));
ENDSEC;
END-ISO-10303-21;
